<?xml version="1.0" encoding="utf-8"?>
<!-- Generator: Adobe Illustrator 16.0.0, SVG Export Plug-In . SVG Version: 6.00 Build 0)  -->
<!DOCTYPE svg PUBLIC "-//W3C//DTD SVG 1.1//EN" "http://www.w3.org/Graphics/SVG/1.1/DTD/svg11.dtd">
<svg version="1.1" id="Calque_1" xmlns="http://www.w3.org/2000/svg" xmlns:xlink="http://www.w3.org/1999/xlink" x="0px" y="0px"
	 width="195px" height="42px" viewBox="0 0 195 42" enable-background="new 0 0 195 42" xml:space="preserve">
<path fill="#B79A5F" d="M0,18.593h4.723v-3.204h9.385c3.34,0,4.34-2.183,4.34-4.084v-1.091c0-2.5-1.085-4.366-5.575-4.366H0V18.593z
	 M4.723,9.017h6.937c1.426,0,1.937,0.493,1.937,1.355v0.493c0,0.757-0.426,1.355-1.533,1.355H4.723V9.017z M20.226,14.122
	c0,3.732,2.531,4.612,6.788,4.612h7.574c4.255,0,6.787-0.88,6.787-4.612v-3.803c0-3.732-2.532-4.612-6.787-4.612h-7.574
	c-4.257,0-6.788,0.88-6.788,4.612V14.122z M25.077,11.534c0-1.584,0.468-2.553,2.958-2.553h5.533c2.488,0,2.957,0.968,2.957,2.553
	v1.373c0,1.849-0.469,2.554-2.702,2.554h-6.043c-2.234,0-2.703-0.705-2.703-2.554V11.534z M48.515,9.017h7.383
	c1.491,0,2.17,0.211,2.17,1.338v0.422c0,0.917-0.468,1.338-1.745,1.338h-7.809V9.017z M43.792,18.593h4.724v-3.31h7.426
	c1.468,0,1.937,0.44,1.937,1.778v1.531h4.723v-2.166c0-2.095-1.17-2.605-2.575-2.816v-0.036c2.17-0.422,2.639-1.425,2.639-3.133
	v-0.81c0-2.289-0.979-3.785-4.617-3.785H43.792V18.593z M65.147,15.302c0,2.763,1.725,3.432,6.022,3.432h5.724
	c6.277,0,7.681-0.562,7.681-3.997c0-3.714-1.702-4.083-9.042-4.066c-5.064,0.018-5.638-0.017-5.638-1.126
	c0-0.687,0.722-0.986,1.787-0.986h5.234c2.169,0,2.298,0.387,2.298,1.32h4.724V9.474c0-2.236-0.511-3.767-5.958-3.767h-6.596
	c-5.957,0-6.212,1.779-6.212,4.084c0,3.133,0.809,3.837,7.915,3.837c6.085,0,6.639,0.071,6.639,1.179
	c0,0.986-1.021,1.075-2.022,1.075h-5.787c-1.361,0-2.021-0.106-2.042-1.461h-4.724V15.302z M86.718,14.122
	c0,3.732,2.532,4.612,6.787,4.612h7.617c4.745,0,5.682-1.689,5.682-3.837V13.7h-4.725c0,1.584-0.637,1.761-2.766,1.761h-5.042
	c-2.234,0-2.702-0.705-2.702-2.554v-1.373c0-1.584,0.468-2.553,2.957-2.553h5.149c1.403,0,2.213,0.264,2.213,1.179v0.354h4.724
	c0.042-3.609-0.831-4.807-7.554-4.807h-5.554c-4.255,0-6.787,0.88-6.787,4.612V14.122z M109.217,18.593h4.723v-4.824h9.959v4.824
	h4.723V5.848h-4.723v4.542h-9.959V5.848h-4.723V18.593z M131.375,18.593h17.128V15.53h-12.404v-2.042h11.49v-2.641h-11.49V8.806
	h12.129V5.848h-16.853V18.593z M22.451,36.658h15.253v-3.219H27.148v-9.307h-4.697V36.658z M39.337,36.658h4.57v-8.997h0.042
	l6.156,8.997h3.513l6.156-8.997h0.042v8.997h4.57V24.133h-7.214l-5.311,8.06l-5.31-8.06h-7.214V36.658z M67.28,36.658h17.03v-3.012
	H71.977v-2.006h11.424v-2.596H71.977v-2.007h12.059v-2.905H67.28V36.658z M91.634,27.246h7.34c1.481,0,2.158,0.207,2.158,1.314
	v0.415c0,0.9-0.465,1.314-1.734,1.314h-7.764V27.246z M86.938,36.658h4.696v-3.253h7.382c1.461,0,1.926,0.432,1.926,1.746v1.507
	h4.697v-2.13c0-2.059-1.163-2.559-2.561-2.768v-0.035c2.158-0.414,2.624-1.4,2.624-3.079v-0.794c0-2.25-0.973-3.72-4.592-3.72
	H86.938V36.658z M129.565,33.422c0,2.715,1.713,3.374,5.986,3.374h5.691c6.24,0,7.637-0.554,7.637-3.928
	c0-3.65-1.691-4.014-8.991-3.995c-5.035,0.016-5.604-0.019-5.604-1.108c0-0.674,0.718-0.969,1.775-0.969h5.205
	c2.157,0,2.284,0.382,2.284,1.298h4.695v-0.397c0-2.196-0.506-3.701-5.922-3.701h-6.558c-5.924,0-6.178,1.747-6.178,4.012
	c0,3.081,0.804,3.771,7.869,3.771c6.051,0,6.601,0.068,6.601,1.158c0,0.97-1.015,1.057-2.01,1.057h-5.755
	c-1.354,0-2.008-0.105-2.03-1.437h-4.696V33.422z M15.091,30.296l-0.004-1.644c0-0.946-0.921-1.716-2.058-1.716H7.082
	c-1.137,0-2.057,0.77-2.057,1.716v1.644H15.091z M0.375,36.575v-8.517c0-2.37,2.303-4.291,5.145-4.291h9.072
	c2.841,0,5.144,1.921,5.144,4.291l0.017,8.517h-4.648l-0.008-3.778H5.025v3.778H0.375z M122.789,30.296l-0.004-1.644
	c0-0.946-0.921-1.716-2.058-1.716h-5.948c-1.136,0-2.057,0.77-2.057,1.716v1.644H122.789z M108.073,36.575v-8.517
	c0-2.37,2.304-4.291,5.145-4.291h9.072c2.841,0,5.145,1.921,5.145,4.291l0.016,8.517h-4.647l-0.01-3.778h-10.07v3.778H108.073z"/>
<g>
	<path fill-rule="evenodd" clip-rule="evenodd" fill="#B79A5F" d="M162.63,13.191c0-0.733,0.009-1.465-0.001-2.198
		c-0.037-2.53-0.078-5.061-0.127-7.591c-0.004-0.179,0.091-0.229,0.214-0.286c1.309-0.613,2.663-1.104,4.044-1.524
		c2.342-0.712,4.729-1.196,7.16-1.479c2.182-0.253,4.368-0.325,6.558-0.229c1.47,0.065,2.94,0.152,4.403,0.299
		c2.526,0.255,5.023,0.706,7.462,1.43c0.821,0.244,1.623,0.552,2.436,0.827c0.162,0.055,0.224,0.144,0.222,0.325
		c-0.024,2.161-0.04,4.322-0.06,6.483c-0.013,1.436-0.028,2.872-0.046,4.308c-0.031,2.649-0.059,5.298-0.102,7.947
		c-0.018,1.063-0.016,2.13-0.197,3.184c-0.171,0.993-0.434,1.963-0.783,2.906c-0.247,0.672-0.497,1.344-0.794,1.995
		c-0.286,0.629-0.625,1.235-0.957,1.843c-0.323,0.59-0.631,1.192-1.01,1.745c-0.467,0.682-0.982,1.333-1.509,1.972
		c-0.693,0.844-1.518,1.56-2.344,2.269c-1.471,1.265-3.077,2.34-4.774,3.275c-0.931,0.514-1.884,0.988-2.896,1.332
		c-0.434,0.147-0.849,0.086-1.265-0.021c-1.41-0.362-2.688-1.026-3.926-1.77c-3.051-1.832-5.578-4.237-7.657-7.113
		c-1.593-2.202-2.782-4.605-3.445-7.251c-0.302-1.202-0.462-2.425-0.466-3.667c-0.006-1.851-0.032-3.701-0.043-5.552
		c-0.008-1.153-0.002-2.307-0.002-3.46C162.694,13.191,162.663,13.191,162.63,13.191z M185.273,22.458c2.953,0,5.911,0,8.882,0
		c0-0.195,0-0.355,0-0.546c-3.006,0-6.006,0-9.015,0c0-1.409,0-2.788,0-4.185c3.029,0,6.041,0,9.074,0c0-0.183,0-0.348,0-0.543
		c-3.029,0-6.053,0-9.081,0c0-1.13,0-2.231,0-3.361c3.05,0,6.089,0,9.131,0c0-0.194,0-0.358,0-0.545c-5.042,0-10.066,0-15.095,0
		c0-1.284,0-2.546,0-3.828c5.057,0,10.097,0,15.143,0c0-0.178,0-0.335,0-0.523c-5.066,0-10.118,0-15.165,0c0-1.256,0-2.481,0-3.742
		c5.224,0.076,10.312,0.787,15.169,2.795c-0.027-0.519-0.053-1.012-0.081-1.504c-0.056-0.965-0.118-1.93-0.165-2.895
		c-0.02-0.396-0.006-0.396-0.38-0.521c-1.708-0.569-3.458-0.969-5.228-1.289c-2.138-0.386-4.29-0.656-6.458-0.804
		c-1.438-0.099-2.878-0.17-4.319-0.083c-1.156,0.069-2.313,0.149-3.465,0.271c-2.229,0.236-4.435,0.617-6.611,1.151
		c-1.431,0.351-2.845,0.749-4.176,1.402c-0.204,0.1-0.276,0.23-0.278,0.443c-0.016,1.354-0.038,2.707-0.057,4.06
		c-0.002,0.077,0.007,0.154,0.012,0.253c0.084-0.034,0.137-0.056,0.189-0.077c0.768-0.311,1.523-0.652,2.304-0.926
		c1.908-0.669,3.874-1.128,5.861-1.491c2.247-0.41,4.507-0.71,6.797-0.724c0.298-0.002,0.302,0,0.302,0.287c0,2.488,0,4.976,0,7.464
		c0,0.052,0.015,0.11-0.004,0.154c-0.023,0.056-0.074,0.099-0.113,0.147c-0.025-0.013-0.05-0.026-0.075-0.039
		c0-2.586,0-5.172,0-7.725c-0.539,0-1.052-0.038-1.556,0.007c-1.447,0.129-2.898,0.245-4.336,0.453
		c-3.168,0.457-6.239,1.278-9.166,2.6c-0.129,0.059-0.176,0.125-0.172,0.263c0.016,0.592,0.023,1.184,0.031,1.776
		c0.032,2.353,0.066,4.707,0.093,7.06c0.017,1.51,0.023,3.02,0.036,4.529c0,0.071,0.009,0.142,0.017,0.25c3.089,0,6.155,0,9.229,0
		c0.012,0.704,0.145,1.345,0.385,1.964c0.242,0.622,0.585,1.186,1.048,1.729c-3.379,0-6.708,0-10.037,0
		c0.013,0.491,0.087,0.567,0.536,0.567c3.229,0,6.457-0.002,9.686,0.006c0.125,0,0.275,0.054,0.373,0.134
		c0.811,0.668,1.706,1.174,2.727,1.434c0.426,0.108,0.867,0.158,1.317,0.237c0,0.655,0,1.332,0,2.05c-4.263,0-8.518,0-12.789,0
		c0.22,0.535,0.22,0.535,0.726,0.535c3.939,0,7.879,0.001,11.818-0.004c0.207,0,0.262,0.058,0.262,0.263
		c-0.005,1.132,0.006,2.265,0.011,3.397c0.001,0.084,0,0.169,0,0.272c-3.22,0-6.398,0-9.614,0c0.252,0.304,0.438,0.548,0.886,0.544
		c2.813-0.026,5.628-0.014,8.441-0.014c0.085,0,0.171,0,0.271,0c0,0.116,0,0.196,0,0.276c0,1.74,0,3.481,0,5.221
		c0,0.435,0,0.436,0.438,0.41c0.02-0.001,0.038-0.017,0.086-0.039c0-4.305,0-8.619,0-12.948c0.211-0.024,0.394-0.041,0.574-0.067
		c1.144-0.162,2.222-0.492,3.146-1.221c0.091-0.071,0.204-0.125,0.315-0.157c1.095-0.31,2.186-0.636,3.289-0.91
		c1.121-0.279,2.242-0.232,3.345,0.142c0.723,0.243,1.325,0.676,1.899,1.161c0.115,0.097,0.264,0.154,0.409,0.237
		c-0.051,0.175-0.089,0.192-0.264,0.062c-0.124-0.094-0.242-0.193-0.36-0.295c-1.202-1.034-2.609-1.416-4.165-1.261
		c-1.085,0.108-2.124,0.443-3.168,0.743c-0.683,0.196-1.362,0.394-1.911,0.878c-0.021,0.02-0.052,0.029-0.078,0.042
		c-0.289,0.142-0.577,0.282-0.854,0.418c0.055,0.225,0.352,0.449,0.1,0.659c-0.266,0.223-0.482-0.039-0.671-0.224
		c-0.355,0.427-0.433,0.414-0.721-0.118c-0.228,0.031-0.458,0.062-0.695,0.095c0,4.247,0,8.473,0,12.726
		c0.088-0.027,0.157-0.045,0.224-0.071c1.306-0.509,2.542-1.156,3.731-1.894c1.193-0.74,2.369-1.512,3.415-2.455
		c0.784-0.706,1.565-1.421,2.287-2.189c1.023-1.09,1.779-2.376,2.499-3.68c0.622-1.126,1.181-2.28,1.623-3.49
		c0.432-1.176,0.79-2.369,0.954-3.614c0.062-0.473,0.084-0.951,0.123-1.417c-2.948,0-5.858,0-8.771,0
		c-0.009,0.067-0.012,0.097-0.018,0.125c-0.13,0.635-0.251,1.271-0.398,1.902c-0.036,0.156-0.163,0.292-0.248,0.437
		c0.087-0.441,0.232-0.852,0.328-1.274C185.154,23.367,185.2,22.927,185.273,22.458z"/>
	<path fill-rule="evenodd" clip-rule="evenodd" fill="#B79A5F" d="M172.954,13.793c3.947,0,7.853,0,11.786,0
		c0,0.401,0,0.798,0,1.195c0,2.518,0.014,5.035-0.005,7.552c-0.011,1.437-0.557,2.681-1.523,3.732
		c-1.005,1.094-2.264,1.693-3.742,1.807c-2.514,0.193-4.755-1.067-5.875-3.24c-0.406-0.788-0.606-1.62-0.601-2.518
		c0.014-2.08-0.011-4.16-0.021-6.239c-0.004-0.681-0.012-1.361-0.02-2.042C172.954,13.961,172.954,13.881,172.954,13.793z
		 M184.34,14.19c-3.682,0-7.328,0-10.976,0c-0.005,0.036-0.012,0.058-0.012,0.079c0.006,2.813,0.012,5.626,0.019,8.439
		c0,0.037-0.001,0.075,0.004,0.111c0.156,1.255,0.676,2.342,1.571,3.229c1.222,1.213,2.708,1.756,4.43,1.646
		c1.316-0.086,2.454-0.587,3.385-1.516c1.082-1.08,1.614-2.402,1.607-3.934c-0.005-1.295-0.022-2.59-0.027-3.884
		c-0.005-1.304-0.001-2.607-0.001-3.91C184.34,14.372,184.34,14.291,184.34,14.19z"/>
	<path fill-rule="evenodd" clip-rule="evenodd" fill="#B79A5F" d="M176.08,8.149c-1.044,0.104-1.538,0.35-1.782,0.886
		c0.745,0.199,1.457,0.446,1.742,1.341c-0.086-0.042-0.125-0.053-0.154-0.076c-0.775-0.591-1.674-0.793-2.623-0.816
		c-1.539-0.038-3.012,0.316-4.438,0.848c-1.003,0.373-1.972,0.836-2.956,1.26c-0.06,0.026-0.116,0.062-0.186,0.1
		c0.117,0.285,0.416,0.573,0.081,0.87c-0.22,0.194-0.515,0.089-0.864-0.246c-0.504,0.351-0.84,0.386-1.008,0.105
		c-0.195-0.326-0.053-0.552,0.482-0.81c-0.048-0.225-0.113-0.438-0.127-0.653c-0.004-0.066,0.122-0.163,0.209-0.208
		c0.324-0.168,0.531-0.042,0.827,0.501c0.273-0.157,0.55-0.307,0.815-0.477c0.045-0.028,0.055-0.144,0.047-0.214
		c-0.056-0.464-0.074-0.925,0.067-1.381c0.192-0.625,0.847-1.147,1.476-1.139c-0.612,0.657-1.176,1.318-0.936,2.328
		c0.68-0.227,1.329-0.443,1.95-0.65c0.029-0.416,0.019-0.812,0.091-1.191c0.154-0.801,0.906-1.275,1.689-1.088
		c-0.693,0.5-1.084,1.143-1.035,2.04c0.321-0.073,0.615-0.138,0.909-0.207c0.229-0.053,0.458-0.121,0.689-0.163
		c0.154-0.028,0.221-0.091,0.236-0.255c0.044-0.455,0.165-0.892,0.449-1.258c0.425-0.546,1.089-0.732,1.839-0.513
		c-0.951,0.317-1.415,0.987-1.551,1.929c0.385,0,0.747-0.02,1.105,0.006c0.352,0.024,0.568-0.061,0.771-0.396
		C174.426,7.751,175.283,7.584,176.08,8.149z"/>
	<path fill-rule="evenodd" clip-rule="evenodd" fill="#B79A5F" d="M182.003,31.59c0.114,0.146,0.221,0.26,0.3,0.391
		c0.143,0.232,0.104,0.415-0.098,0.562s-0.431,0.135-0.595-0.058c-0.113-0.134-0.194-0.295-0.305-0.467
		c-0.065,0.087-0.13,0.18-0.203,0.267c-0.191,0.228-0.416,0.288-0.603,0.168c-0.222-0.142-0.286-0.405-0.134-0.664
		c0.095-0.162,0.232-0.299,0.352-0.447c-0.092-0.103-0.2-0.203-0.285-0.321c-0.146-0.204-0.136-0.364,0.013-0.519
		c0.172-0.179,0.441-0.25,0.599-0.104c0.199,0.187,0.354,0.422,0.552,0.667c0.328-0.171,0.704-0.367,1.09-0.568
		c-0.174-0.572-0.271-1.134,0.082-1.67c0.189-0.291,0.466-0.461,0.79-0.582c-0.115,0.329-0.246,0.638-0.33,0.96
		c-0.088,0.334-0.059,0.672,0.12,0.999c0.361-0.112,0.716-0.213,1.062-0.337c0.059-0.021,0.109-0.142,0.115-0.219
		c0.029-0.47,0.109-0.924,0.335-1.344c0.256-0.473,0.725-0.763,1.244-0.747c-0.673,0.571-0.993,1.266-0.857,2.16
		c0.344-0.06,0.671-0.108,0.994-0.179c0.055-0.012,0.107-0.104,0.134-0.17c0.131-0.328,0.223-0.676,0.383-0.989
		c0.289-0.568,0.799-0.77,1.329-0.569c0.026,0.01,0.049,0.028,0.095,0.056c-0.455,0.224-0.798,0.531-0.989,0.989
		c-0.218,0.523-0.177,0.561,0.368,0.646c0.416,0.066,0.716,0.021,0.954-0.377c0.115-0.19,0.358-0.328,0.572-0.428
		c0.284-0.133,0.516-0.063,0.788,0.155c-0.421,0.213-0.871,0.384-1.098,0.855c0.449,0.427,0.854,0.878,0.932,1.501
		c-0.331-0.229-0.642-0.496-0.996-0.676c-0.811-0.411-1.687-0.471-2.574-0.348c-1.23,0.171-2.421,0.482-3.534,1.049
		C182.398,31.339,182.204,31.471,182.003,31.59z"/>
	<path fill-rule="evenodd" clip-rule="evenodd" fill="#B79A5F" d="M174.059,12.585c-0.291,0.132-0.578,0.248-0.85,0.391
		c-0.127,0.067-0.224,0.189-0.334,0.287c-0.08,0.071-0.16,0.142-0.24,0.213c-0.02-0.009-0.037-0.019-0.055-0.028
		c0,0.263,0,0.525,0,0.802c-2.58-0.232-4.822,0.729-6.98,1.784c0.072,0.274,0.147,0.506,0.188,0.744
		c0.01,0.059-0.078,0.163-0.146,0.202c-0.295,0.171-0.54,0.042-0.771-0.375c-0.175,0.09-0.342,0.197-0.525,0.262
		c-0.186,0.066-0.369,0.037-0.474-0.164c-0.107-0.208-0.062-0.439,0.128-0.572c0.13-0.092,0.281-0.156,0.439-0.241
		c-0.068-0.103-0.143-0.2-0.202-0.307c-0.133-0.239-0.087-0.446,0.114-0.556c0.21-0.115,0.402-0.054,0.537,0.181
		c0.062,0.107,0.108,0.223,0.172,0.356c0.31-0.154,0.614-0.301,0.912-0.461c0.036-0.02,0.049-0.107,0.052-0.165
		c0.021-0.351-0.001-0.709,0.062-1.053c0.084-0.459,0.355-0.807,0.8-0.994c0.065-0.027,0.136-0.042,0.263-0.082
		c-0.473,0.626-0.723,1.248-0.445,2.013c0.414-0.178,0.813-0.343,1.203-0.528c0.049-0.023,0.064-0.153,0.065-0.234
		c0.005-0.442,0.067-0.871,0.282-1.263c0.23-0.418,0.586-0.627,1.13-0.62c-0.544,0.537-0.878,1.129-0.909,1.891
		c0.453-0.11,0.89-0.209,1.32-0.328c0.059-0.016,0.102-0.123,0.133-0.196c0.136-0.325,0.223-0.678,0.404-0.974
		c0.334-0.544,0.869-0.686,1.495-0.592c-0.755,0.32-1.151,0.906-1.317,1.708c0.358-0.02,0.697-0.07,1.031-0.049
		c0.361,0.022,0.521-0.136,0.672-0.446c0.358-0.737,1.046-0.992,1.711-0.685C173.969,12.526,174.011,12.557,174.059,12.585z"/>
	<path fill-rule="evenodd" clip-rule="evenodd" fill="#B79A5F" d="M167.122,16.949c-0.36,0.645-0.511,1.307-0.223,2.047
		c0.35-0.147,0.689-0.285,1.021-0.439c0.04-0.019,0.049-0.134,0.047-0.205c-0.006-0.344-0.061-0.693-0.022-1.032
		c0.069-0.596,0.522-1.008,1.164-1.092c-0.487,0.618-0.927,1.229-0.585,2.078c0.395-0.124,0.774-0.238,1.148-0.367
		c0.044-0.015,0.076-0.112,0.084-0.175c0.051-0.458,0.138-0.905,0.398-1.3c0.312-0.475,0.758-0.7,1.224-0.725
		c-0.137,0.164-0.31,0.381-0.492,0.589c-0.319,0.364-0.549,0.766-0.597,1.259c-0.014,0.133,0.027,0.18,0.154,0.165
		c0.396-0.048,0.791-0.098,1.188-0.142c0.127-0.014,0.203-0.063,0.262-0.189c0.14-0.302,0.332-0.568,0.678-0.751
		c0,0.54,0,1.044,0,1.571c-2.381-0.148-4.471,0.689-6.438,1.987c0.097,0.141,0.185,0.256,0.258,0.382
		c0.087,0.148,0.169,0.307,0.027,0.47c-0.112,0.128-0.411,0.191-0.577,0.116c-0.086-0.039-0.16-0.102-0.235-0.16
		c-0.069-0.055-0.132-0.117-0.184-0.165c-0.171,0.12-0.341,0.26-0.53,0.369c-0.173,0.099-0.355,0.108-0.492-0.082
		c-0.15-0.211-0.154-0.45,0.018-0.603c0.146-0.13,0.319-0.228,0.485-0.344c-0.077-0.096-0.171-0.191-0.241-0.302
		c-0.15-0.235-0.121-0.439,0.07-0.593c0.178-0.142,0.385-0.125,0.576,0.062c0.127,0.123,0.236,0.262,0.373,0.414
		c0.192-0.134,0.397-0.264,0.584-0.417c0.047-0.038,0.055-0.152,0.044-0.226c-0.057-0.393-0.169-0.783-0.181-1.176
		C166.108,17.356,166.511,16.964,167.122,16.949z"/>
	<path fill-rule="evenodd" clip-rule="evenodd" fill="#B79A5F" d="M186.937,24.898c0.354,0.023,0.69,0.055,1.028,0.058
		c0.061,0,0.148-0.104,0.18-0.179c0.166-0.391,0.359-0.759,0.673-1.059c0.437-0.417,1.053-0.484,1.582-0.144
		c-0.104,0.042-0.2,0.074-0.291,0.117c-0.475,0.225-0.809,0.585-1.039,1.053c-0.074,0.152-0.041,0.228,0.114,0.284
		c0.326,0.118,0.647,0.247,0.988,0.378c0.307-0.451,0.632-0.895,1.252-0.934c0.314-0.019,0.594,0.065,0.853,0.288
		c-0.456,0.131-0.87,0.293-1.188,0.636c-0.21,0.227-0.211,0.231,0.029,0.407c0.425,0.312,0.658,0.72,0.621,1.306
		c-0.479-0.467-0.991-0.819-1.572-1.065c-0.606-0.257-1.241-0.368-1.897-0.4c-1.482-0.071-2.892,0.263-4.277,0.737
		c-0.056,0.019-0.113,0.033-0.171,0.047c-0.012,0.003-0.026-0.007-0.052-0.015c0.222-0.288,0.437-0.576,0.663-0.855
		c0.035-0.044,0.115-0.057,0.179-0.073c0.343-0.088,0.685-0.18,1.03-0.257c0.163-0.036,0.227-0.12,0.254-0.281
		c0.089-0.536,0.264-1.035,0.712-1.386c0.392-0.307,0.84-0.361,1.379-0.267C187.398,23.692,187.019,24.177,186.937,24.898z"/>
	<path fill-rule="evenodd" clip-rule="evenodd" fill="#B79A5F" d="M186.199,33.062c-0.587,0.285-0.915,0.756-1.062,1.383
		c0.318,0.077,0.624,0.151,0.944,0.229c0.213-0.401,0.426-0.834,0.925-0.962c0.173-0.044,0.37,0.005,0.564,0.046
		c-0.466,0.287-0.739,0.708-0.98,1.169c0.291,0.229,0.687,0.372,0.667,0.864c-0.23-0.136-0.435-0.28-0.657-0.385
		c-1.065-0.498-2.124-0.408-3.172,0.066c-0.597,0.27-1.125,0.644-1.633,1.076c0.154,0.123,0.306,0.226,0.437,0.35
		c0.172,0.165,0.196,0.338,0.081,0.472c-0.144,0.165-0.317,0.152-0.478,0.038c-0.159-0.116-0.301-0.256-0.455-0.39
		c-0.11,0.146-0.216,0.313-0.348,0.456c-0.208,0.226-0.396,0.238-0.574,0.066c-0.164-0.157-0.145-0.374,0.044-0.589
		c0.078-0.089,0.145-0.189,0.222-0.292c-0.071-0.061-0.192-0.152-0.3-0.26c-0.171-0.173-0.184-0.345-0.05-0.489
		c0.134-0.146,0.35-0.156,0.516-0.001c0.127,0.119,0.229,0.266,0.35,0.409c0.228-0.195,0.45-0.388,0.671-0.577
		c-0.464-0.95-0.425-1.428,0.137-1.751c-0.024,0.192-0.086,0.39-0.063,0.576c0.028,0.251,0.115,0.497,0.195,0.739
		c0.013,0.041,0.136,0.088,0.178,0.068c0.241-0.11,0.473-0.241,0.702-0.362c-0.164-1.27,0.135-1.858,1.051-2.006
		c-0.515,0.495-0.786,1.038-0.547,1.756c0.293-0.069,0.572-0.13,0.848-0.209c0.05-0.015,0.091-0.103,0.114-0.164
		c0.163-0.436,0.366-0.843,0.752-1.128C185.55,33.061,185.856,32.99,186.199,33.062z"/>
	<path fill-rule="evenodd" clip-rule="evenodd" fill="#B79A5F" d="M193.516,4.08c-0.978-0.292-1.938-0.579-2.923-0.874
		c0,0.147,0.007,0.265-0.002,0.381c-0.008,0.119,0.043,0.161,0.155,0.194c0.864,0.255,1.725,0.524,2.59,0.777
		c0.148,0.043,0.207,0.102,0.195,0.256c-0.014,0.168-0.003,0.339-0.003,0.548c-0.999-0.305-1.976-0.603-2.947-0.899
		c-0.015,0.029-0.021,0.035-0.021,0.042c-0.057,0.483-0.057,0.484,0.407,0.614c0.797,0.223,1.592,0.45,2.391,0.666
		c0.149,0.041,0.206,0.108,0.194,0.262c-0.013,0.168-0.002,0.338-0.002,0.531c-0.079-0.01-0.144-0.011-0.202-0.028
		c-1.11-0.335-2.221-0.673-3.332-1.005c-0.111-0.033-0.155-0.077-0.154-0.196c0.004-0.933,0.002-1.865,0.003-2.798
		c0-0.042,0.012-0.084,0.023-0.158c1.215,0.33,2.417,0.655,3.628,0.984C193.516,3.601,193.516,3.82,193.516,4.08z"/>
	<path fill-rule="evenodd" clip-rule="evenodd" fill="#B79A5F" d="M163.737,7.119c-0.008-0.069-0.016-0.111-0.016-0.153
		c-0.008-0.954-0.01-1.908-0.024-2.862c-0.003-0.16,0.062-0.216,0.2-0.258c0.988-0.304,1.975-0.615,2.961-0.923
		c0.043-0.013,0.086-0.025,0.129-0.036c0.523-0.133,0.699,0.003,0.703,0.535c0.004,0.347,0.015,0.694,0.025,1.041
		c0.006,0.224-0.094,0.349-0.312,0.417c-0.896,0.275-1.789,0.565-2.686,0.844c-0.138,0.043-0.182,0.114-0.175,0.255
		c0.011,0.236,0.015,0.474-0.004,0.709c-0.005,0.071-0.077,0.169-0.144,0.198C164.188,6.977,163.968,7.04,163.737,7.119z
		 M164.518,4.735c0,0.029,0,0.059,0,0.088c0.001,0.361,0.025,0.379,0.362,0.272c0.57-0.181,1.142-0.36,1.713-0.541
		c0.36-0.113,0.472-0.301,0.408-0.679c-0.04-0.238-0.137-0.301-0.369-0.229c-0.571,0.179-1.142,0.359-1.712,0.542
		C164.518,4.319,164.518,4.321,164.518,4.735z"/>
	<path fill-rule="evenodd" clip-rule="evenodd" fill="#B79A5F" d="M172.034,2.596c0,0.554,0,1.107,0,1.661
		c-0.001,0.394-0.147,0.583-0.537,0.668c-0.766,0.165-1.532,0.323-2.299,0.484c-0.174,0.036-0.346,0.075-0.52,0.11
		c-0.207,0.042-0.381-0.073-0.395-0.279c-0.046-0.691-0.09-1.384-0.121-2.077c-0.014-0.338,0.227-0.637,0.557-0.706
		c0.889-0.184,1.78-0.36,2.672-0.537c0.273-0.054,0.645,0.123,0.597,0.497c-0.007,0.059-0.001,0.118-0.001,0.178
		C172.002,2.596,172.018,2.596,172.034,2.596z M171.329,3.353c-0.007,0-0.014,0-0.02,0c0-0.133,0.007-0.267-0.002-0.399
		c-0.014-0.197-0.158-0.358-0.32-0.329c-0.609,0.109-1.219,0.226-1.824,0.357c-0.197,0.043-0.305,0.191-0.297,0.412
		c0.013,0.362,0.012,0.724,0.023,1.086c0.008,0.247,0.118,0.356,0.346,0.313c0.602-0.114,1.201-0.24,1.801-0.37
		c0.207-0.045,0.304-0.186,0.295-0.406C171.321,3.796,171.329,3.575,171.329,3.353z"/>
	<path fill-rule="evenodd" clip-rule="evenodd" fill="#B79A5F" d="M180.718,1.294c0,0.206,0,0.365,0,0.544
		c-0.431,0-0.851,0.003-1.27,0c-0.444-0.004-0.888-0.02-1.331-0.018c-0.196,0.001-0.323,0.154-0.323,0.347
		c0,0.213,0.106,0.332,0.328,0.329c0.724-0.009,1.449-0.021,2.173-0.045c0.309-0.01,0.439,0.096,0.433,0.405
		c-0.008,0.325-0.024,0.65-0.026,0.975c-0.002,0.199-0.085,0.307-0.286,0.315c-0.376,0.016-0.753,0.035-1.129,0.046
		c-0.658,0.02-1.315,0.034-1.974,0.05c-0.035,0.001-0.071-0.007-0.119-0.012c0-0.168,0-0.327,0-0.511
		c0.283-0.014,0.562-0.033,0.84-0.042c0.591-0.019,1.182-0.037,1.773-0.045c0.186-0.003,0.304-0.056,0.307-0.259
		c0.002-0.185-0.125-0.31-0.326-0.31c-0.651-0.003-1.303,0-1.954-0.002c-0.104,0-0.208-0.004-0.31-0.02
		c-0.23-0.037-0.388-0.211-0.388-0.442c0-0.332,0.009-0.665,0.022-0.997c0.007-0.171,0.169-0.317,0.392-0.318
		c0.844-0.004,1.688,0.006,2.531,0.009C180.288,1.295,180.493,1.294,180.718,1.294z"/>
	<path fill-rule="evenodd" clip-rule="evenodd" fill="#B79A5F" d="M176.013,3.168c0.204,0.383,0.388,0.726,0.594,1.114
		c-0.25,0.027-0.45,0.054-0.651,0.067c-0.036,0.002-0.086-0.043-0.112-0.079c-0.03-0.04-0.039-0.095-0.06-0.143
		c-0.248-0.577-0.389-0.667-1.009-0.617c-0.374,0.03-0.746,0.078-1.12,0.117c-0.211,0.022-0.318,0.13-0.303,0.352
		c0.012,0.162,0.004,0.325,0.017,0.487c0.01,0.125-0.018,0.193-0.159,0.203c-0.131,0.01-0.26,0.046-0.417,0.075
		c-0.026-1.009-0.052-2.001-0.077-3.029c0.298-0.039,0.585-0.078,0.873-0.112c0.71-0.083,1.42-0.166,2.131-0.246
		c0.375-0.042,0.574,0.132,0.59,0.505c0.006,0.125,0.02,0.25,0.023,0.375C176.342,2.592,176.407,2.965,176.013,3.168z
		 M175.627,2.445c0-0.295-0.15-0.468-0.396-0.439c-0.511,0.06-1.022,0.12-1.533,0.189c-0.388,0.053-0.387,0.059-0.373,0.46
		c0.002,0.081,0.004,0.163-0.001,0.244c-0.01,0.182,0.073,0.26,0.254,0.238c0.547-0.067,1.096-0.129,1.642-0.203
		C175.495,2.897,175.627,2.726,175.627,2.445z"/>
	<path fill-rule="evenodd" clip-rule="evenodd" fill="#B79A5F" d="M188.428,3.345c0-0.444,0-0.85,0-1.293
		c0.233,0.058,0.442,0.109,0.651,0.16c0,1.027,0,2.032,0,3.062c-0.197-0.033-0.385-0.055-0.565-0.103
		c-0.041-0.011-0.081-0.112-0.083-0.173c-0.008-0.338-0.003-0.678-0.003-1.033c-0.744-0.132-1.468-0.261-2.224-0.396
		c0,0.398,0,0.771,0,1.163c-0.209-0.028-0.39-0.052-0.578-0.078c0-1.008,0-2.004,0-3.029c0.193,0.034,0.372,0.065,0.599,0.105
		c0,0.363-0.006,0.724,0.005,1.083c0.002,0.059,0.066,0.158,0.115,0.167C187.027,3.108,187.712,3.222,188.428,3.345z"/>
	<path fill-rule="evenodd" clip-rule="evenodd" fill="#B79A5F" d="M185.083,1.625c0,0.193,0,0.368,0,0.557
		c-0.588-0.07-1.165-0.143-1.742-0.208c-0.301-0.034-0.602-0.063-0.904-0.078c-0.229-0.01-0.322,0.091-0.323,0.319
		c-0.002,0.385-0.001,0.77-0.001,1.155c0.001,0.297,0.061,0.383,0.36,0.417c0.455,0.052,0.911,0.083,1.367,0.119
		c0.36,0.029,0.722,0.046,1.08,0.085c0.058,0.006,0.138,0.095,0.148,0.156c0.023,0.128,0.007,0.263,0.007,0.429
		c-0.332-0.029-0.645-0.054-0.957-0.083c-0.734-0.067-1.469-0.136-2.202-0.205c-0.323-0.03-0.435-0.148-0.434-0.465
		c0.004-0.659,0.006-1.317,0.018-1.976c0.007-0.361,0.213-0.551,0.61-0.517C183.094,1.416,184.077,1.524,185.083,1.625z"/>
	<path fill-rule="evenodd" clip-rule="evenodd" fill="#B79A5F" d="M176.302,10.686c-0.063,0.344-0.202,0.409-0.433,0.214
		c-0.76-0.646-1.664-0.872-2.631-0.903c-1.694-0.056-3.291,0.399-4.854,0.988c-0.678,0.255-1.33,0.574-1.995,0.859
		c-0.066,0.028-0.147,0.02-0.222,0.028c-0.008-0.031-0.016-0.062-0.023-0.092c0.282-0.137,0.562-0.28,0.848-0.41
		c1.451-0.659,2.944-1.192,4.524-1.449c0.999-0.163,1.997-0.204,2.987,0.069c0.498,0.138,0.946,0.373,1.348,0.7
		C176.061,10.861,176.071,10.857,176.302,10.686z"/>
	<path fill-rule="evenodd" clip-rule="evenodd" fill="#B79A5F" d="M190.038,31.632c-0.033,0.119-0.042,0.179-0.065,0.23
		c-0.078,0.177-0.183,0.188-0.319,0.049c-0.232-0.236-0.449-0.493-0.708-0.696c-0.726-0.566-1.577-0.692-2.46-0.585
		c-1.309,0.157-2.562,0.512-3.73,1.143c-0.038,0.021-0.099-0.001-0.149-0.004c0.031-0.042,0.054-0.105,0.096-0.125
		c0.489-0.225,0.97-0.479,1.477-0.653c0.831-0.288,1.686-0.501,2.571-0.555c1.159-0.07,2.112,0.33,2.85,1.233
		C189.774,31.884,189.832,31.886,190.038,31.632z"/>
	<path fill-rule="evenodd" clip-rule="evenodd" fill="#B79A5F" d="M193.72,7.165c-1.336-0.403-2.662-0.803-4.003-1.208
		c0-0.092,0-0.191,0-0.317c0.545,0.164,1.074,0.322,1.603,0.482c0.741,0.224,1.482,0.453,2.225,0.673
		C193.75,6.856,193.781,6.979,193.72,7.165z"/>
	<path fill-rule="evenodd" clip-rule="evenodd" fill="#B79A5F" d="M168.174,5.486c0.178,0.229,0.391,0.246,0.643,0.19
		c0.863-0.19,1.73-0.363,2.595-0.546c0.433-0.091,0.526-0.159,0.785-0.531c0.076,0.277-0.167,0.667-0.47,0.757
		c-0.197,0.059-0.4,0.104-0.603,0.147c-0.786,0.167-1.574,0.329-2.361,0.494C168.422,6.068,168.189,5.876,168.174,5.486z"/>
	<path fill-rule="evenodd" clip-rule="evenodd" fill="#B79A5F" d="M177.007,4.713c0-0.1,0-0.192,0-0.289
		c1.111-0.029,2.214-0.06,3.315-0.086c0.219-0.005,0.407-0.062,0.528-0.266c0.091,0.28-0.088,0.548-0.387,0.567
		c-0.39,0.024-0.78,0.037-1.171,0.047c-0.716,0.02-1.431,0.035-2.146,0.05C177.104,4.736,177.061,4.722,177.007,4.713z"/>
	<path fill-rule="evenodd" clip-rule="evenodd" fill="#B79A5F" d="M181.325,4.086c0.155,0.373,0.462,0.361,0.746,0.389
		c0.97,0.095,1.939,0.189,2.91,0.276c0.221,0.02,0.307,0.108,0.229,0.346c-0.312-0.03-0.631-0.06-0.95-0.091
		c-0.786-0.074-1.571-0.15-2.358-0.223c-0.366-0.034-0.583-0.227-0.607-0.553C181.291,4.195,181.309,4.158,181.325,4.086z"/>
	<path fill-rule="evenodd" clip-rule="evenodd" fill="#B79A5F" d="M165.989,16.124c0.828-0.347,1.65-0.712,2.488-1.036
		c0.92-0.355,1.879-0.576,2.869-0.594c0.369-0.007,0.741,0.093,1.109,0.16c0.062,0.011,0.11,0.101,0.145,0.175
		c-1.184-0.345-2.314-0.108-3.437,0.207c-1.021,0.286-1.986,0.713-2.932,1.187c-0.062,0.031-0.142,0.028-0.212,0.041
		C166.008,16.216,165.999,16.17,165.989,16.124z"/>
	<path fill-rule="evenodd" clip-rule="evenodd" fill="#B79A5F" d="M172.565,18.723c-1.338-0.102-2.6,0.141-3.81,0.631
		c-0.69,0.279-1.346,0.645-2.019,0.967c-0.057,0.027-0.128,0.024-0.193,0.035c-0.006-0.028-0.014-0.056-0.021-0.084
		c0.264-0.142,0.527-0.283,0.791-0.427c1.179-0.642,2.417-1.109,3.759-1.26c0.402-0.045,0.811-0.05,1.216-0.053
		C172.396,18.531,172.578,18.5,172.565,18.723z"/>
	<path fill-rule="evenodd" clip-rule="evenodd" fill="#B79A5F" d="M176.825,4.766c-0.358,0.035-0.709,0.069-1.064,0.104
		c-0.056-0.133-0.107-0.27-0.17-0.401c-0.229-0.484-0.359-0.543-0.883-0.465c-0.382,0.057-0.767,0.088-1.148,0.13
		c-0.076-0.271-0.056-0.31,0.204-0.34c0.444-0.051,0.89-0.107,1.336-0.132c0.101-0.005,0.243,0.085,0.304,0.174
		c0.124,0.18,0.218,0.385,0.297,0.589c0.045,0.114,0.085,0.146,0.206,0.123c0.188-0.037,0.38-0.044,0.569-0.072
		C176.692,4.444,176.813,4.524,176.825,4.766z"/>
	<path fill-rule="evenodd" clip-rule="evenodd" fill="#B79A5F" d="M167.873,4.814c0.021,0.26-0.077,0.44-0.345,0.527
		c-0.897,0.29-1.797,0.57-2.696,0.854c-0.021,0.006-0.044,0.005-0.075,0.008c-0.06-0.19-0.025-0.304,0.193-0.37
		c0.824-0.249,1.645-0.51,2.463-0.779C167.579,4.999,167.727,4.891,167.873,4.814z"/>
	<path fill-rule="evenodd" clip-rule="evenodd" fill="#B79A5F" d="M182.29,2.353c-0.021-0.283-0.018-0.302,0.267-0.272
		c0.828,0.086,1.654,0.186,2.482,0.282c0.211,0.024,0.299,0.133,0.225,0.339C184.279,2.586,183.295,2.471,182.29,2.353z"/>
	<path fill-rule="evenodd" clip-rule="evenodd" fill="#B79A5F" d="M187.526,35.959c-0.07,0.139-0.141,0.276-0.219,0.431
		c-0.088-0.053-0.15-0.078-0.199-0.12c-0.953-0.823-2.028-0.892-3.151-0.461c-0.498,0.191-0.953,0.493-1.43,0.742
		c-0.051,0.026-0.111,0.03-0.168,0.045c0.028-0.05,0.043-0.116,0.085-0.146c0.799-0.586,1.669-1.014,2.676-1.066
		c0.713-0.037,1.353,0.188,1.907,0.645C187.292,36.247,187.296,36.244,187.526,35.959z"/>
	<path fill-rule="evenodd" clip-rule="evenodd" fill="#B79A5F" d="M180.884,1.985c0,0.143,0,0.229,0,0.354
		c-0.178-0.016-0.349-0.044-0.519-0.044c-0.693,0-1.388,0.013-2.082,0.011c-0.114,0-0.307,0.082-0.314-0.129
		c-0.009-0.215,0.175-0.192,0.324-0.192C179.148,1.986,180.003,1.985,180.884,1.985z"/>
	<path fill-rule="evenodd" clip-rule="evenodd" fill="#B79A5F" d="M176.963,2.768c0.188,0.397,0.479,0.474,0.829,0.467
		c0.598-0.011,1.196-0.003,1.794-0.003c0.073,0,0.153-0.01,0.219,0.014c0.05,0.018,0.081,0.083,0.121,0.126
		c-0.044,0.024-0.089,0.067-0.134,0.069c-0.663,0.026-1.326,0.047-1.989,0.067c-0.138,0.004-0.284,0.032-0.412-0.004
		C177.093,3.42,176.944,3.17,176.963,2.768z"/>
	<path fill-rule="evenodd" clip-rule="evenodd" fill="#B79A5F" d="M188.231,4.109c0,0.119,0,0.212,0,0.321
		c-0.587-0.104-1.158-0.205-1.73-0.308c-0.22-0.039-0.11-0.192-0.123-0.339C187.006,3.894,187.613,4,188.231,4.109z"/>
	<path fill-rule="evenodd" clip-rule="evenodd" fill="#B79A5F" d="M166.29,12.437c-0.049,0.304-0.169,0.523-0.451,0.626
		c-0.375,0.136-0.726,0.077-0.996-0.177c-0.316,0.241-0.664,0.29-1.03,0.121c-0.183-0.084-0.279-0.258-0.299-0.513
		c0.124,0.254,0.333,0.412,0.6,0.408c0.245-0.004,0.49-0.085,0.792-0.144C165.335,13.104,165.879,13.011,166.29,12.437z"/>
	<path fill-rule="evenodd" clip-rule="evenodd" fill="#B79A5F" d="M166.819,21.174c-0.135,0.618-0.828,0.757-1.393,0.314
		c-0.884,0.43-1.24,0.347-1.382-0.336c0.144,0.229,0.29,0.487,0.599,0.445c0.262-0.036,0.513-0.151,0.809-0.244
		C166.038,21.692,166.424,21.659,166.819,21.174z"/>
	<path fill-rule="evenodd" clip-rule="evenodd" fill="#B79A5F" d="M181.28,32.69c0.599,0.527,0.961,0.517,1.463-0.069
		c-0.053,0.327-0.256,0.481-0.517,0.572c-0.401,0.141-0.703-0.021-0.933-0.343c-0.788,0.394-1.266,0.18-1.424-0.628
		C180.323,33.061,180.694,33.016,181.28,32.69z"/>
	<path fill-rule="evenodd" clip-rule="evenodd" fill="#B79A5F" d="M190.799,3.449c0.627,0.189,1.255,0.377,1.882,0.568
		c0.289,0.088,0.577,0.178,0.863,0.275c0.062,0.021,0.11,0.079,0.165,0.12c-0.012,0.02-0.022,0.041-0.034,0.061
		c-0.249-0.074-0.499-0.148-0.748-0.223c-0.671-0.202-1.343-0.402-2.012-0.607c-0.063-0.02-0.115-0.076-0.173-0.116
		C190.762,3.501,190.781,3.475,190.799,3.449z"/>
	<path fill-rule="evenodd" clip-rule="evenodd" fill="#B79A5F" d="M181.42,37.604c-0.178,0.332-0.381,0.614-0.806,0.543
		c-0.281-0.047-0.547-0.325-0.585-0.612c0.196,0.249,0.398,0.457,0.726,0.449c0.35-0.008,0.498-0.273,0.638-0.492
		c0.229,0.128,0.44,0.303,0.681,0.364c0.287,0.074,0.483-0.146,0.646-0.369c-0.028,0.276-0.194,0.451-0.437,0.528
		C181.896,38.14,181.677,37.853,181.42,37.604z"/>
	<path fill-rule="evenodd" clip-rule="evenodd" fill="#B79A5F" d="M166.142,16.917c-0.056,0.32-0.271,0.442-0.521,0.528
		c-0.36,0.124-0.633-0.005-0.829-0.308c-0.681,0.347-1.052,0.249-1.188-0.338c0.332,0.522,0.736,0.465,1.16,0.167
		C165.149,17.471,165.692,17.396,166.142,16.917z"/>
	<path fill-rule="evenodd" clip-rule="evenodd" fill="#B79A5F" d="M190.777,4.705c0.979,0.304,1.958,0.607,2.938,0.91
		c-0.004,0.02-0.007,0.039-0.011,0.058c-0.016,0.008-0.034,0.026-0.047,0.022c-0.915-0.257-1.83-0.515-2.743-0.779
		c-0.073-0.021-0.132-0.09-0.198-0.136C190.736,4.754,190.756,4.729,190.777,4.705z"/>
	<path fill-rule="evenodd" clip-rule="evenodd" fill="#B79A5F" d="M180.783,29.156c0.428,0.232,0.609,0.21,0.981-0.161
		c-0.001,0.351-0.437,0.606-0.786,0.438c-0.173-0.084-0.291-0.122-0.483-0.009c-0.319,0.186-0.627-0.066-0.67-0.447
		c0.102,0.081,0.229,0.25,0.386,0.288C180.366,29.302,180.552,29.206,180.783,29.156z"/>
	<path fill-rule="evenodd" clip-rule="evenodd" fill="#B79A5F" d="M163.651,7.653c-0.085-0.239,0.019-0.335,0.224-0.394
		c0.274-0.079,0.542-0.182,0.841-0.285c0,0.127,0,0.217,0,0.321C164.369,7.412,164.014,7.531,163.651,7.653z"/>
	<path fill-rule="evenodd" clip-rule="evenodd" fill="#B79A5F" d="M189.234,5.812c-0.334-0.063-0.65-0.124-0.967-0.184
		c-0.052-0.301-0.037-0.315,0.268-0.262c0.16,0.027,0.319,0.064,0.48,0.083C189.236,5.474,189.303,5.587,189.234,5.812z"/>
	<path fill-rule="evenodd" clip-rule="evenodd" fill="#B79A5F" d="M174.802,8.928c0.114-0.302,0.335-0.427,0.566-0.466
		c0.338-0.056,0.687-0.049,1.031-0.06c0.032-0.001,0.065,0.058,0.098,0.089c-0.04,0.031-0.079,0.087-0.12,0.088
		c-0.199,0.005-0.398-0.016-0.596-0.005c-0.314,0.018-0.613,0.091-0.854,0.317C174.911,8.908,174.877,8.907,174.802,8.928z"/>
	<path fill-rule="evenodd" clip-rule="evenodd" fill="#B79A5F" d="M173.973,7.284c-0.059,0.055-0.107,0.134-0.176,0.161
		c-0.407,0.153-0.783,0.355-1.061,0.695c-0.15,0.183-0.264,0.396-0.378,0.571c0.044-0.654,0.834-1.322,1.568-1.473
		C173.943,7.254,173.958,7.269,173.973,7.284z"/>
	<path fill-rule="evenodd" clip-rule="evenodd" fill="#B79A5F" d="M185.458,4.812c0.287,0.045,0.558,0.071,0.815,0.14
		c0.062,0.017,0.083,0.18,0.139,0.316c-0.358-0.05-0.651-0.092-0.954-0.134C185.458,5.042,185.458,4.956,185.458,4.812z"/>
	<path fill-rule="evenodd" clip-rule="evenodd" fill="#B79A5F" d="M173.529,4.8c0.015,0.125,0.026,0.216,0.038,0.314
		c-0.285,0.038-0.545,0.072-0.809,0.107c-0.116-0.202-0.098-0.259,0.119-0.303C173.085,4.875,173.294,4.842,173.529,4.8z"/>
	<path fill-rule="evenodd" clip-rule="evenodd" fill="#B79A5F" d="M189.449,24.802c0.007-0.038,0.005-0.083,0.023-0.114
		c0.287-0.466,0.678-0.796,1.229-0.902c0.048-0.01,0.103,0.016,0.154,0.024c-0.035,0.045-0.062,0.117-0.108,0.131
		c-0.327,0.099-0.65,0.207-0.899,0.456c-0.131,0.131-0.243,0.281-0.364,0.424C189.471,24.814,189.459,24.808,189.449,24.802z"/>
	<path fill-rule="evenodd" clip-rule="evenodd" fill="#B79A5F" d="M172.458,12.189c-0.08,0.055-0.153,0.144-0.238,0.157
		c-0.592,0.093-1,0.409-1.24,0.991c0.002-0.299,0.173-0.645,0.502-0.853c0.277-0.175,0.605-0.271,0.912-0.401
		C172.415,12.119,172.436,12.154,172.458,12.189z"/>
	<path fill-rule="evenodd" clip-rule="evenodd" fill="#B79A5F" d="M191.449,25.646c0.102-0.32,0.396-0.459,1.418-0.653
		c-0.049,0.059-0.085,0.149-0.146,0.169c-0.218,0.069-0.449,0.095-0.661,0.174C191.858,25.408,191.674,25.528,191.449,25.646z"/>
	<path fill-rule="evenodd" clip-rule="evenodd" fill="#B79A5F" d="M173.229,13.398c0.372-0.497,0.922-0.519,1.386-0.707
		c0.018,0.018,0.036,0.036,0.054,0.054c-0.052,0.053-0.094,0.131-0.157,0.155c-0.171,0.066-0.355,0.1-0.526,0.166
		C173.75,13.158,173.522,13.268,173.229,13.398z"/>
	<path fill-rule="evenodd" clip-rule="evenodd" fill="#B79A5F" d="M167.059,9.663c0.008-0.524,0.641-1.36,1.186-1.487
		c-0.061,0.064-0.113,0.139-0.184,0.191C167.623,8.694,167.26,9.08,167.059,9.663z"/>
	<path fill-rule="evenodd" clip-rule="evenodd" fill="#B79A5F" d="M170.676,17.403c0.17-0.71,0.651-1.174,1.219-1.566
		c0.021,0.017,0.041,0.033,0.061,0.05c-0.07,0.075-0.132,0.161-0.212,0.225c-0.366,0.292-0.71,0.604-0.934,1.025
		C170.764,17.225,170.721,17.314,170.676,17.403z"/>
	<path fill-rule="evenodd" clip-rule="evenodd" fill="#B79A5F" d="M185.53,34.267c0.17-0.363,0.399-0.668,0.737-0.866
		c0.111-0.065,0.245-0.095,0.372-0.13c0.027-0.007,0.068,0.034,0.104,0.053c-0.021,0.032-0.037,0.091-0.062,0.095
		c-0.506,0.082-0.796,0.443-1.078,0.818C185.588,34.254,185.554,34.257,185.53,34.267z"/>
	<path fill-rule="evenodd" clip-rule="evenodd" fill="#B79A5F" d="M170.977,7.527c-0.025,0.049-0.037,0.12-0.078,0.146
		c-0.48,0.298-0.852,0.691-1.086,1.21c0.151-0.636,0.549-1.075,1.096-1.392C170.932,7.503,170.955,7.515,170.977,7.527z"/>
	<path fill-rule="evenodd" clip-rule="evenodd" fill="#B79A5F" d="M187.353,24.572c0.202-0.565,0.534-1.014,1.097-1.245
		c0.019,0.012,0.038,0.023,0.057,0.035c-0.02,0.045-0.026,0.106-0.06,0.133c-0.21,0.159-0.447,0.288-0.634,0.47
		C187.633,24.141,187.505,24.368,187.353,24.572z"/>
	<path fill-rule="evenodd" clip-rule="evenodd" fill="#B79A5F" d="M190.475,29.074c-0.054,0.055-0.098,0.127-0.162,0.159
		c-0.324,0.16-0.654,0.309-0.979,0.46C189.276,29.522,189.882,29.142,190.475,29.074z"/>
	<path fill-rule="evenodd" clip-rule="evenodd" fill="#B79A5F" d="M187.5,29.155c0.076-0.451,0.63-1.008,1.173-1.126
		c-0.04,0.048-0.07,0.114-0.121,0.142C188.117,28.407,187.743,28.706,187.5,29.155z"/>
	<path fill-rule="evenodd" clip-rule="evenodd" fill="#B79A5F" d="M187.044,34.899c0.069-0.391,0.648-0.901,1.081-0.949
		c-0.035,0.064-0.049,0.133-0.084,0.146C187.622,34.254,187.323,34.561,187.044,34.899z"/>
	<path fill-rule="evenodd" clip-rule="evenodd" fill="#B79A5F" d="M186.742,27.586c-0.028,0.047-0.047,0.107-0.088,0.138
		c-0.473,0.355-0.815,0.806-1.017,1.362c0.138-0.654,0.498-1.157,1.039-1.536C186.698,27.562,186.719,27.573,186.742,27.586z"/>
	<path fill-rule="evenodd" clip-rule="evenodd" fill="#B79A5F" d="M169.907,12.238c-0.025,0.046-0.038,0.114-0.076,0.135
		c-0.453,0.241-0.74,0.622-0.941,1.079c0.137-0.561,0.445-0.988,0.961-1.254C169.87,12.211,169.887,12.225,169.907,12.238z"/>
	<path fill-rule="evenodd" clip-rule="evenodd" fill="#B79A5F" d="M169.616,16.301c-0.039,0.055-0.068,0.125-0.119,0.164
		c-0.333,0.247-0.584,0.554-0.747,0.935c0.089-0.512,0.403-0.859,0.81-1.139C169.578,16.274,169.596,16.288,169.616,16.301z"/>
	<path fill-rule="evenodd" clip-rule="evenodd" fill="#B79A5F" d="M166.967,13.826c0.085-0.392,0.299-0.756,0.666-1.035
		C167.407,13.144,167.179,13.496,166.967,13.826z"/>
	<path fill-rule="evenodd" clip-rule="evenodd" fill="#B79A5F" d="M183.846,33.931c0.103-0.346,0.323-0.644,0.679-0.86
		c-0.021,0.052-0.03,0.112-0.063,0.151C184.254,33.467,184.042,33.708,183.846,33.931z"/>
	<path fill-rule="evenodd" clip-rule="evenodd" fill="#B79A5F" d="M184.228,28.15c-0.204,0.345-0.409,0.69-0.589,0.992
		C183.698,28.779,183.897,28.431,184.228,28.15z"/>
	<path fill-rule="evenodd" clip-rule="evenodd" fill="#B79A5F" d="M167.577,16.965c-0.176,0.254-0.351,0.508-0.531,0.771
		c0.084-0.319,0.208-0.607,0.479-0.808C167.542,16.94,167.559,16.953,167.577,16.965z"/>
	<path fill-rule="evenodd" clip-rule="evenodd" fill="#B79A5F" d="M176.407,3.41c-0.169-0.155-0.169-0.155,0.131-0.461
		C176.497,3.095,176.455,3.241,176.407,3.41z"/>
	<path fill-rule="evenodd" clip-rule="evenodd" fill="#B79A5F" d="M180.021,36.369c0.102,0.112,0.196,0.218,0.292,0.323
		C180.175,36.784,180.065,36.664,180.021,36.369z"/>
	<path fill-rule="evenodd" clip-rule="evenodd" fill="#B79A5F" d="M179.708,18.995c0.228,0.239,0.382,0.49,0.298,0.806
		c-0.132-0.079-0.256-0.195-0.4-0.229c-0.26-0.063-0.494,0.124-0.59,0.42c-0.207,0.646,0.1,1.074,0.779,1.069
		c0.442-0.003,0.886-0.023,1.328-0.046c0.419-0.021,0.769,0.116,1.05,0.428c0.038,0.042,0.086,0.077,0.128,0.113
		c0.29-0.208,0.385-0.458,0.231-0.75c-0.148-0.287-0.341-0.552-0.526-0.818c-0.136-0.193-0.253-0.389-0.209-0.633
		c0.017-0.093,0.074-0.18,0.125-0.298c0.096,0.208,0.171,0.372,0.246,0.535c0.027-0.004,0.055-0.008,0.082-0.012
		c0.025-0.093,0.068-0.185,0.072-0.279c0.016-0.307,0.195-0.476,0.452-0.601c0.176-0.085,0.339-0.194,0.58-0.334
		c-0.082,0.167-0.129,0.294-0.203,0.402c-0.145,0.21-0.328,0.399-0.446,0.622c-0.041,0.078,0.065,0.233,0.104,0.353
		c0.089-0.044,0.207-0.067,0.26-0.138c0.071-0.095,0.093-0.228,0.135-0.343c0.217,0.188,0.197,0.269-0.19,0.752
		c0.211,0.348,0.227,0.354,0.532,0.188c0.07,0.215-0.019,0.345-0.269,0.417c-0.084,0.024-0.159,0.078-0.238,0.118
		c0.043,0.064,0.077,0.174,0.131,0.184c0.094,0.017,0.207-0.008,0.295-0.052c0.073-0.035,0.122-0.122,0.182-0.187
		c0.078,0.243,0.049,0.309-0.325,0.694c0.145,0.076,0.274,0.144,0.422,0.222c-0.112,0.136-0.272,0.186-0.464,0.132
		c-0.106-0.03-0.205-0.083-0.31-0.122c-0.275-0.103-0.515,0.057-0.5,0.351c0.018,0.331-0.096,0.603-0.299,0.855
		c-0.425,0.525-0.421,0.785-0.006,1.317c0.236,0.302,0.212,0.456-0.053,0.741c-0.168,0.182-0.291,0.404-0.44,0.603
		c-0.055,0.073-0.121,0.143-0.195,0.193c-0.177,0.12-0.37,0.216-0.539,0.346c-0.052,0.039-0.078,0.156-0.065,0.229
		c0.029,0.164-0.026,0.235-0.184,0.258c-0.087,0.013-0.169,0.059-0.256,0.068c-0.058,0.006-0.135-0.008-0.174-0.044
		c-0.023-0.021-0.005-0.117,0.024-0.159c0.247-0.355,0.472-0.728,0.818-1.007c0.289-0.232,0.404-0.577,0.484-0.924
		c0.016-0.068-0.062-0.191-0.13-0.237c-0.247-0.164-0.511-0.306-0.804-0.478c-0.115,0.053-0.178,0.194-0.122,0.37
		c0.083,0.264-0.028,0.418-0.247,0.542c-0.455,0.261-0.906,0.528-1.359,0.794c-0.158,0.093-0.286,0.201-0.159,0.44
		c-0.196,0.055-0.365,0.102-0.533,0.148c-0.016-0.022-0.031-0.045-0.046-0.067c0.111-0.264,0.25-0.52,0.499-0.684
		c0.426-0.28,0.851-0.549,1.168-0.968c0.136-0.179,0.121-0.294,0.006-0.442c-0.072-0.093-0.185-0.174-0.214-0.278
		c-0.055-0.194-0.063-0.402-0.092-0.604c0.021-0.014,0.041-0.027,0.061-0.041c-0.104-0.018-0.21-0.048-0.315-0.051
		c-0.229-0.008-0.459-0.012-0.688-0.001c-0.418,0.02-0.758-0.152-1.073-0.404c-0.048-0.039-0.167-0.065-0.196-0.037
		c-0.379,0.353-0.791,0.236-1.208,0.11c-0.092-0.027-0.185-0.058-0.278-0.067c-0.238-0.023-0.385,0.073-0.381,0.309
		c0.008,0.381,0.046,0.764,0.104,1.14c0.018,0.113,0.134,0.219,0.302,0.186c0.069-0.014,0.149,0.023,0.225,0.038
		c-0.026,0.072-0.046,0.149-0.083,0.217c-0.027,0.051-0.076,0.09-0.118,0.131c-0.169,0.166-0.19,0.156-0.331-0.043
		c-0.068-0.098-0.187-0.162-0.253-0.262c-0.069-0.104-0.134-0.228-0.147-0.349c-0.029-0.264-0.02-0.531-0.033-0.797
		c-0.012-0.198-0.03-0.396-0.057-0.593c-0.027-0.213,0.039-0.302,0.246-0.334c0.24-0.039,0.479-0.083,0.715-0.141
		c0.062-0.016,0.166-0.107,0.158-0.128c-0.03-0.081-0.093-0.202-0.154-0.209c-0.287-0.033-0.348-0.222-0.43-0.457
		c-0.08-0.229-0.254-0.428-0.402-0.628c-0.018-0.024-0.166-0.002-0.193,0.039c-0.16,0.238-0.304,0.486-0.447,0.734
		c-0.076,0.132-0.131,0.277-0.213,0.404c-0.074,0.114-0.131,0.208-0.021,0.333c0.094,0.107,0.053,0.184-0.078,0.229
		c-0.076,0.027-0.143,0.079-0.218,0.105c-0.057,0.02-0.147,0.043-0.175,0.017c-0.035-0.035-0.045-0.129-0.024-0.18
		c0.07-0.166,0.181-0.317,0.237-0.487c0.188-0.567,0.494-1.068,0.848-1.539c0.209-0.278,0.408-0.241,0.551,0.093
		c0.078,0.182,0.19,0.306,0.368,0.39c0.128,0.062,0.189,0.025,0.238-0.093c0.094-0.225,0.165-0.465,0.297-0.665
		c0.126-0.192,0.317-0.342,0.479-0.511c0.046-0.047,0.107-0.085,0.136-0.141c0.066-0.128,0.118-0.266,0.178-0.403
		c-0.166-0.161-0.323-0.167-0.532-0.051c-0.115,0.064-0.241,0.203-0.402,0.031c0.036-0.057,0.072-0.114,0.126-0.199
		c-0.183-0.01-0.382,0.139-0.517-0.098c0.434-0.271,0.732-0.788,1.416-0.696c-0.162-0.179-0.276-0.307-0.391-0.434
		c0.006-0.017,0.013-0.033,0.02-0.05c0.063,0.008,0.134,0.002,0.191,0.027c0.245,0.102,0.46,0.045,0.668-0.101
		c0.096-0.067,0.208-0.11,0.308-0.174c0.115-0.074,0.235-0.146,0.332-0.24c0.173-0.168,0.346-0.32,0.632-0.288
		c-0.096,0.111-0.198,0.194-0.255,0.301c-0.104,0.197-0.041,0.335,0.18,0.368c0.132,0.02,0.271-0.023,0.407-0.039
		c0.247-0.029,0.493-0.069,0.741-0.083c0.075-0.005,0.156,0.056,0.296,0.111c-0.104,0.033-0.14,0.056-0.175,0.055
		c-0.197-0.008-0.422,0.021-0.448,0.227c-0.019,0.138,0.116,0.316,0.223,0.444c0.102,0.122,0.261,0.193,0.381,0.302
		c0.082,0.075,0.139,0.178,0.162,0.29c-0.162-0.054-0.322-0.112-0.486-0.155c-0.027-0.007-0.073,0.056-0.146,0.117
		c0.362,0.113,0.47,0.374,0.537,0.733C180.194,19.13,180.041,18.879,179.708,18.995z M178.502,19.102
		c-0.011,0.001-0.021,0.003-0.032,0.004c0,0.074-0.016,0.153,0.004,0.221c0.026,0.093,0.08,0.177,0.122,0.265
		c0.084-0.072,0.224-0.133,0.241-0.218c0.092-0.466,0.113-0.938-0.068-1.393c-0.086-0.213-0.232-0.381-0.469-0.432
		c-0.06-0.013-0.129,0.022-0.193,0.036c0.02,0.057,0.032,0.116,0.058,0.169c0.062,0.124,0.159,0.238,0.187,0.368
		C178.418,18.445,178.454,18.774,178.502,19.102z"/>
	<path fill-rule="evenodd" clip-rule="evenodd" fill="#B79A5F" d="M182.516,15.549c0.076,0.122,0.146,0.232,0.225,0.357
		c-0.06,0.048-0.113,0.091-0.189,0.153c-0.085-0.122-0.15-0.237-0.236-0.334c-0.051-0.058-0.135-0.088-0.203-0.131
		c-0.023,0.07-0.05,0.14-0.069,0.211c-0.011,0.042-0.009,0.086-0.015,0.145c-0.075,0-0.145,0-0.227,0c0-0.471,0-0.935,0-1.442
		c0.215,0.011,0.435,0.004,0.647,0.037c0.2,0.031,0.333,0.173,0.362,0.374c0.03,0.216,0.029,0.434-0.199,0.566
		C182.581,15.501,182.553,15.523,182.516,15.549z M182.06,15.343c0.413-0.018,0.539-0.094,0.521-0.308
		c-0.017-0.213-0.182-0.301-0.521-0.272C182.06,14.955,182.06,15.149,182.06,15.343z"/>
	<path fill-rule="evenodd" clip-rule="evenodd" fill="#B79A5F" d="M176.827,14.706c0.096,0,0.16,0,0.275,0
		c-0.018,0.382-0.016,0.756-0.062,1.125c-0.027,0.223-0.305,0.367-0.555,0.341c-0.254-0.026-0.441-0.213-0.453-0.49
		c-0.014-0.316-0.004-0.634-0.004-0.968c0.09,0,0.164,0,0.261,0c0,0.301,0.005,0.596-0.001,0.89
		c-0.005,0.18,0.038,0.309,0.248,0.312c0.201,0.003,0.289-0.093,0.291-0.326C176.828,15.297,176.827,15.003,176.827,14.706z"/>
	<path fill-rule="evenodd" clip-rule="evenodd" fill="#B79A5F" d="M179.974,15.467c-0.077-0.011-0.135-0.019-0.21-0.03
		c0-0.075,0-0.15,0-0.235c0.144,0,0.28,0,0.479,0c-0.046,0.24-0.067,0.464-0.137,0.673c-0.053,0.16-0.19,0.253-0.379,0.254
		c-0.188,0-0.329-0.075-0.421-0.236c-0.196-0.346-0.203-0.707-0.039-1.061c0.146-0.315,0.482-0.373,0.753-0.14
		c-0.07,0.092-0.114,0.184-0.279,0.119c-0.059-0.023-0.251,0.107-0.262,0.185c-0.033,0.225-0.023,0.461,0.011,0.687
		c0.013,0.079,0.15,0.194,0.227,0.19c0.074-0.003,0.152-0.129,0.212-0.212C179.959,15.617,179.957,15.548,179.974,15.467z"/>
	<path fill-rule="evenodd" clip-rule="evenodd" fill="#B79A5F" d="M181.595,15.934c-0.08,0.035-0.14,0.06-0.218,0.094
		c-0.046-0.218-0.184-0.262-0.385-0.259c-0.197,0.002-0.334,0.035-0.34,0.281c-0.097-0.04-0.161-0.066-0.244-0.1
		c0.19-0.534,0.375-1.053,0.582-1.632C181.202,14.883,181.394,15.396,181.595,15.934z M181.182,15.536
		c-0.065-0.161-0.118-0.292-0.193-0.473c-0.065,0.193-0.111,0.326-0.161,0.473C180.954,15.536,181.048,15.536,181.182,15.536z"/>
	<path fill-rule="evenodd" clip-rule="evenodd" fill="#B79A5F" d="M174.803,14.837c-0.094,0-0.19,0.011-0.283-0.003
		c-0.149-0.022-0.301-0.033-0.339,0.147c-0.036,0.168,0.088,0.206,0.235,0.247c0.16,0.044,0.334,0.128,0.439,0.249
		c0.146,0.166,0.086,0.408-0.078,0.556c-0.18,0.16-0.527,0.177-0.725,0.031c-0.045-0.034-0.08-0.083-0.175-0.184
		c0.163,0,0.263,0,0.362,0s0.207,0.026,0.298-0.001c0.061-0.019,0.136-0.11,0.138-0.171c0.003-0.063-0.064-0.141-0.121-0.19
		c-0.039-0.034-0.109-0.037-0.168-0.045c-0.301-0.047-0.416-0.144-0.457-0.396c-0.033-0.209,0.049-0.362,0.234-0.456
		c0.211-0.106,0.471-0.05,0.64,0.129C174.803,14.78,174.803,14.808,174.803,14.837z"/>
	<path fill-rule="evenodd" clip-rule="evenodd" fill="#B79A5F" d="M177.748,15.978c-0.089,0-0.152,0-0.242,0
		c0-0.334,0.002-0.657-0.001-0.98c-0.001-0.086,0.039-0.194-0.112-0.224c-0.03-0.006-0.036-0.138-0.058-0.229
		c0.199,0,0.365,0,0.548,0c0.014,0.101,0.091,0.207-0.085,0.259c-0.031,0.01-0.047,0.113-0.048,0.173
		C177.746,15.308,177.748,15.639,177.748,15.978z"/>
	<path fill-rule="evenodd" clip-rule="evenodd" fill="#B79A5F" d="M183.496,15.979c-0.087,0-0.144,0-0.208,0
		c-0.008-0.029-0.021-0.057-0.021-0.084c-0.001-0.266,0.007-0.532-0.005-0.798c-0.005-0.12,0.085-0.29-0.137-0.336
		c-0.023-0.004-0.021-0.13-0.033-0.216c0.198,0,0.372,0,0.557,0c0.01,0.111,0.073,0.222-0.103,0.263
		c-0.028,0.006-0.047,0.112-0.048,0.173C183.494,15.304,183.496,15.629,183.496,15.979z"/>
	<path fill-rule="evenodd" clip-rule="evenodd" fill="#B79A5F" d="M175.536,15.979c-0.086,0-0.143,0-0.207,0
		c-0.008-0.03-0.021-0.057-0.021-0.084c-0.003-0.311,0.003-0.622-0.008-0.932c-0.002-0.06-0.073-0.115-0.102-0.177
		c-0.032-0.07-0.053-0.146-0.086-0.242c0.219,0,0.393,0,0.576,0c0.012,0.114,0.076,0.227-0.104,0.263
		c-0.026,0.005-0.045,0.112-0.046,0.172C175.534,15.303,175.536,15.627,175.536,15.979z"/>
	<path fill-rule="evenodd" clip-rule="evenodd" fill="#B79A5F" d="M178.704,15.979c-0.088,0-0.145,0-0.233,0
		c0-0.327,0.002-0.649-0.001-0.971c-0.001-0.095,0.04-0.21-0.121-0.238c-0.027-0.005-0.033-0.135-0.052-0.226
		c0.207,0,0.38,0,0.561,0c0.008,0.114,0.069,0.228-0.106,0.265c-0.027,0.005-0.044,0.113-0.045,0.174
		C178.702,15.307,178.704,15.631,178.704,15.979z"/>
	<path fill-rule="evenodd" clip-rule="evenodd" fill="#B79A5F" d="M166.795,3.78c0.016,0.134,0.026,0.231,0.036,0.312
		c-0.719,0.225-1.412,0.441-2.116,0.662c-0.056-0.198-0.049-0.312,0.184-0.379C165.522,4.2,166.135,3.99,166.795,3.78z"/>
	<path fill-rule="evenodd" clip-rule="evenodd" fill="#B79A5F" d="M171.129,3.133c-0.715,0.068-1.391,0.213-2.068,0.367
		c-0.056-0.22,0.006-0.338,0.252-0.387c0.535-0.106,1.072-0.203,1.609-0.298C171.1,2.783,171.149,2.873,171.129,3.133z"/>
	<path fill-rule="evenodd" clip-rule="evenodd" fill="#B79A5F" d="M173.516,2.701c-0.071-0.226-0.006-0.324,0.211-0.344
		c0.462-0.043,0.922-0.105,1.383-0.153c0.307-0.033,0.338,0.001,0.326,0.287C174.795,2.561,174.159,2.63,173.516,2.701z"/>
</g>
</svg>
