<?xml version="1.0" encoding="utf-8"?>
<!-- Generator: Adobe Illustrator 16.0.0, SVG Export Plug-In . SVG Version: 6.00 Build 0)  -->
<!DOCTYPE svg PUBLIC "-//W3C//DTD SVG 1.1//EN" "http://www.w3.org/Graphics/SVG/1.1/DTD/svg11.dtd">
<svg version="1.1" id="Mode_Isolation" xmlns="http://www.w3.org/2000/svg" xmlns:xlink="http://www.w3.org/1999/xlink" x="0px"
	 y="0px" width="87.074px" height="72.036px" viewBox="0 0 87.074 72.036" enable-background="new 0 0 87.074 72.036"
	 xml:space="preserve">
<g>
	<g>
		<g>
			<path fill="#B79A5F" d="M37.752,2.79c-0.331,0.053-1.386,0.337-1.497,0.375c-0.115,0.037-0.175,0.073-0.25,0.194
				c-0.075,0.12-0.108,0.384-0.076,0.484c0.031,0.104,0.137,0.183,0.3,0.114c0.224-0.092,1.532-0.574,1.762-0.647
				c0.099-0.032,0.142-0.083,0.161-0.136c0.033-0.085,0.043-0.198,0.033-0.287C38.164,2.707,37.974,2.754,37.752,2.79z"/>
		</g>
		<g>
			<path fill="#B79A5F" d="M61.461,40.445c-0.797-2.377-4.01-8.343-6.533-11.699c-0.548-0.732-0.343-1.108-0.051-1.346
				c0.29-0.235,1.229-1.048,2.342-2.319c1.123-1.285,1.395-2.737,0.6-4.838c-0.789-2.081-3.4-7.028-3.948-8.667
				c-0.629-1.891-0.692-2.73-0.313-3.761c0.446-1.212,1.1-1.264,1.59-1.256c0.265,0.005,0.461,0.283,0.463,0.411
				c0.013,0.534,0.039,1.194,0.561,2.575c0.832,2.198,2.969,3.634,3.643,3.924c0.471,0.203,0.555-0.161,0.514-0.336
				c-0.043-0.174-0.739-2.899-1.262-4.947C58.52,6.04,58.246,5.575,57.76,5.12c-0.771-0.733-1.949-1.126-2.943-1.089
				C52.6,4.118,51.618,6.261,51.498,6.46c-0.107,0.178-0.146,0.303-0.374,0.146c-0.633-0.442-2.485-1.988-2.656-2.958
				c-0.101-0.571-0.198-0.652-0.771-0.875c-2.227-0.869-4.155-1.632-6.289-2.009c-0.856-0.15-0.902-0.225-1.9-0.039
				c-1.696,0.317-2.735,0.708-4.009,1.376c-0.703,0.372-0.784,0.621-0.92,0.798c-0.105,0.139-0.22,0.305-0.473,0.388
				c-0.423,0.138-1.997,0.724-2.537,1.037c-0.337,0.195-0.52,0.402-0.348,0.782c0.301,0.67,1.208,2.068,1.603,2.421
				c0.24,0.211,0.841,0.358,0.984,0.388c0.143,0.036,0.243,0.077,0.297-0.029c0.059-0.118,0.081-0.288,0.361-0.486
				c0.423-0.296,1.208-0.501,1.626-0.539c0.32-0.025,0.515-0.037,0.68,0.082c0.164,0.121,0.542,0.524,0.674,0.932
				c0.131,0.405,0.05,0.559-0.178,0.653c-0.228,0.096-0.91,0.25-1.7,0.313c-0.787,0.063-1.012-0.154-1.068-0.203
				c-0.041-0.045-0.146-0.113-0.226-0.006c-0.132,0.186-0.331,0.305-0.639,0.458c-0.175,0.085-0.268,0.271-0.103,0.56
				c0.503,0.868,1.164,1.844,1.777,2.029c0.487,0.151,0.749-0.008,1.299-0.4c0.49-0.354,0.81-0.353,0.944-0.254
				c0.147,0.111,0.445,0.362,0.368,0.612c-0.131,0.437-1.008,1.474-1.177,1.688c-0.158,0.202-0.308,0.312-0.592,0.175
				c-0.415-0.198-6.718-3.47-7.56-3.797c-0.918-0.353-1.521-0.438-2.424-0.479c-0.73-0.032-1.706,0.039-2.316,0.149
				c-0.445,0.083-0.698,0.293-1.112,0.676c-0.571,0.526-1.174,1.202-1.23,1.765c-0.041,0.404,0.409,1.229,0.458,1.288
				c0.049,0.062,0.132,0.175,0.376,0.149c0.249-0.028,0.873-0.353,1.617-0.224c0.674,0.117,0.743,0.646,0.777,1.054
				c0.005,0.068,0.091,0.228,0.281,0.225c0.269-0.003,0.689,0.004,1.174,0.237c0.599,0.284,1.783,1.201,1.964,1.403
				c0.147,0.167,0.138,0.315-0.144,0.345c-1.503,0.132-3.79,0.579-4.849,0.927c-0.751,0.246-1.637,0.583-1.949,1.127
				c-0.355,0.616-0.804,1.605-0.932,2.312c-0.129,0.704,0.624,1.575,0.825,1.77c0.135,0.132,0.227,0.214,0.467,0.083
				c0.368-0.211,1.256-0.759,2.107-0.811c0.516-0.029,0.724,0.456,0.847,0.635c0.125,0.176,0.245,0.055,0.707-0.07
				c0.82-0.22,5.393-0.137,7.007-0.061c0.738,0.031,1.766,0.142,2.521,0.559c0.752,0.414,2.112,1.697,2.112,1.697
				s-1.808,3.029-2.78,4.824c-0.901,1.659-1.559,2.906-1.882,3.628c-0.299,0.659-0.542,1.597-0.488,2.334
				c0.081,1.078,0.109,1.633,0.096,2.12c-0.014,0.432-0.414,0.479-0.982,0.617c-0.784,0.199-2.346,0.343-3.612,0.655
				c-1.151,0.286-1.58,0.558-1.788,1.447c-0.161,0.69-0.398,2.414-0.426,3.211c-0.014,0.321-0.02,0.479,0.389,0.395
				c0.234-0.046,0.912-0.143,1.774-0.206c1.068-0.082,2.225-0.064,3.119-0.067c1.644-0.011,6.5,0.273,6.827,0.307
				c0.415,0.041,0.499-0.01,0.471-0.299c-0.04-0.384-0.11-1.604-0.126-2.331c-0.021-0.73-0.131-1.471,0.527-2.181
				c0.655-0.71,5.603-6.23,5.878-6.514c0.239-0.241,0.399-0.496,0.767-0.159c0.373,0.342,4.445,3.278,5.273,3.878
				c0.828,0.602,1.598,0.806,2.541,0.818c0.672,0.012,0.857,1.187,0.287,1.296c-0.588,0.112-1.481,0.296-2.106,0.438
				c-0.964,0.225-1.259,0.54-1.55,1.189c-0.248,0.548-0.52,3.244-0.529,3.478c-0.007,0.167-0.018,0.41,0.248,0.354
				c1.188-0.238,3.074-0.309,5.09-0.246c2.313,0.072,4.562,0.265,4.877,0.282c0.34,0.022,0.373-0.027,0.543-0.294
				c0.293-0.457,1.164-1.463,1.922-2.084C61.609,41.038,61.618,40.91,61.461,40.445z M52.566,16.118
				c0.016-0.188,0.021-0.381,0.029-0.582c0.01-0.205,0.006-0.378,0.016-0.613c0.007-0.189,0.156-0.239,0.252-0.113
				c0.104,0.137,0.342,0.866,0.853,1.812c0.765,1.42,1.673,3.194,1.987,3.958c0.297,0.729,0.15,1.284-0.301,1.845
				c-0.612,0.757-2.4,1.581-2.83,1.721c-0.588,0.193-0.971,0.027-1.256-0.246c-0.287-0.273-2.621-3.084-3.373-3.942
				c-0.379-0.434-0.661-1.421,0.478-1.844c0.935-0.34,2.567-0.756,3.074-0.896C52.167,17.029,52.523,16.656,52.566,16.118z
				 M29.839,21.201c-1.698,0.003-3.301,0.05-3.851,0.097c-0.187,0.016-0.333,0.052-0.445-0.008c-0.115-0.062-0.032-0.28,0.133-0.45
				c0.146-0.15,0.832-0.706,1.269-0.809c0.448-0.102,1.836-0.245,2.505-0.284c0.188-0.011,2.62-0.228,2.844-0.217
				c0.221,0.011,0.881,0.996,1.536,1.708C33.754,21.243,31.636,21.196,29.839,21.201z M34.133,33.821
				c-0.497,0.952-0.487,1.348-0.473,2.229c0.014,0.841,0.114,1.877,0.059,2.361c-0.053,0.488-0.366,0.697-0.854,0.834
				c-0.487,0.134-3.375,0.598-4.015,0.785c-0.637,0.189-0.783,0.548-0.89,1.009c-0.109,0.461-0.139,0.631-0.165,0.813
				c-0.023,0.16-0.019,0.338-0.208,0.353c-0.18,0.013-0.838,0.056-1.046,0.085c-0.21,0.025-0.239-0.019-0.232-0.241
				c0.008-0.229,0.216-1.234,0.359-1.763c0.142-0.533,0.368-0.893,1.093-1.067c0.722-0.176,3.659-0.669,4.212-0.768
				c0.65-0.118,0.81-0.396,0.778-1.021c-0.031-0.654-0.125-1.562-0.143-2.122c-0.019-0.562,0.015-1.021,0.201-1.521
				c0.204-0.548,1.248-2.812,2.12-4.406c1.205-2.203,2.689-4.562,2.98-4.914c0.234-0.286,0.394-0.398,0.682-0.309
				c0.208,0.065,0.762,0.455,1.059,0.673c0.239,0.174,0.427,0.313,0.427,0.313C38.067,27.656,35.091,31.989,34.133,33.821z
				 M60.479,40.695c-0.586,0.434-1.477,1.452-1.701,1.798c-0.194,0.295-0.211,0.305-0.521,0.272
				c-2.572-0.244-5.91-0.248-6.841-0.248c-0.171,0-0.104-0.102-0.126-0.179c-0.053-0.189,0.161-1.131,0.299-1.605
				c0.124-0.417,0.236-0.481,1.077-0.76c1-0.328,4.312-0.959,5.104-1.189c0.547-0.162,0.381-0.879,0.035-1.462
				C50.046,24.287,45.75,20.771,35.713,15.309c-1.318-0.709-6.535-3.519-7.577-3.94c-0.987-0.399-2.697-0.585-3.197-0.619
				c-0.619-0.044-1.363,0.14-1.383-0.12c-0.015-0.207,0.184-0.72,0.502-0.773c0.7-0.116,2.216-0.275,3.626,0.082
				c0.637,0.162,1.222,0.42,1.93,0.775c1.919,0.962,4.454,2.246,5.058,2.551c0.893,0.451,4.996,2.555,6.109,3.013
				c1.039,0.426,1.473,0.138,1.832-0.384c0.359-0.521,1.573-3.031,1.892-3.997c0.349-1.045,0.402-1.54-0.123-2.559
				c-0.531-1.031-2.288-3.405-3.289-4.465c-0.658-0.695-2.509-0.664-4.233-0.294c-1.546,0.33-3.494,1.084-3.786,1.198
				c-0.219,0.088-0.436,0.182-0.613,0.177c-0.18,0-0.535-0.646-0.586-0.775c-0.13-0.307-0.128-0.348,0.418-0.59
				c0.987-0.443,1.928-0.657,2.336-0.896c0.412-0.237,0.438-0.675,1.024-1.03c2-1.202,4.194-1.482,4.812-1.429
				c0.906,0.078,5.338,1.291,6.592,2.063c0.09,0.052,0.131,0.079,0.185,0.135c0.144,0.137,0.165,0.266,0.165,0.266
				c0.119,0.605,0.451,1.394,1.182,2.229c0.639,0.727,1.79,1.729,2.087,1.938c0.337,0.239,0.618,0.589,0.705,1.009
				c0.421,2.02,0.611,5.407,0.54,6.105c-0.068,0.646-0.13,0.917-0.965,1.146c-0.857,0.239-2.954,0.674-3.825,0.949
				c-1.333,0.423-1.083,1.44-0.442,2.347c0.653,0.924,5.387,6.489,8.178,10.598c2.844,4.176,4.919,8.193,5.654,10.045
				C60.559,40.172,60.725,40.513,60.479,40.695z"/>
		</g>
	</g>
	<g>
		<path fill="#B79A5F" d="M0.629,53.704v7.267H2.63v-2.235h1.792c3.844,0,5.802-1.232,5.802-2.598c0-1.464-2.102-2.434-5.627-2.434
			H0.629z M2.63,57.95v-3.437h1.574c1.626,0,3.772,0.275,3.772,1.623c0,0.915-0.696,1.812-4.033,1.812H2.63V57.95z"/>
		<path fill="#B79A5F" d="M21.634,60.97v-0.915h-4.932c-1.059,0-1.364-0.479-1.364-1.291V57.7h5.788v-0.912h-5.788v-2.172h6.049
			v-0.912h-8.05v5.104c0,1.364,0.566,2.163,2.408,2.163L21.634,60.97L21.634,60.97z"/>
		<path fill="#B79A5F" d="M34.439,53.704h-2v6.133c-0.552,0.189-1.291,0.364-2.365,0.364c-1.538,0-3.061-0.393-3.061-1.742v-4.755
			h-2.001v4.899c0,2.003,2.001,2.598,4.206,2.598c2.103,0,3.815-0.438,5.221-1.029V53.704z"/>
		<path fill="#B79A5F" d="M40.003,57.357c0-2.016,1.713-2.961,3.8-2.961c1.71,0,3.032,0.494,4.28,0.917v-1.22
			c-1.319-0.39-2.569-0.609-4.28-0.609c-3.349,0-6.077,1.537-6.077,3.873c0,2.469,2.728,3.845,6.077,3.845
			c1.669,0,3.423-0.348,4.498-0.621V57.7h-1.973v2.152c-0.727,0.246-1.248,0.437-2.379,0.437
			C41.673,60.289,40.003,59.158,40.003,57.357"/>
		<path fill="#B79A5F" d="M60.245,60.97v-0.915h-4.933c-1.06,0-1.363-0.479-1.363-1.291V57.7h5.789v-0.912h-5.789v-2.172h6.049
			v-0.912h-8.051v5.104c0,1.364,0.564,2.163,2.408,2.163L60.245,60.97L60.245,60.97z"/>
		<path fill="#B79A5F" d="M68.93,53.484c-3.351,0-6.092,1.566-6.092,3.911c0,2.458,2.741,3.807,6.092,3.807
			c3.352,0,6.077-1.349,6.077-3.807C75.007,55.05,72.279,53.484,68.93,53.484 M68.93,60.389c-2.277,0-3.814-1.175-3.814-2.994
			c0-1.997,1.712-2.999,3.814-2.999c2.088,0,3.799,1.002,3.799,2.999C72.729,59.214,71.189,60.389,68.93,60.389"/>
		<polygon fill="#B79A5F" points="76.648,54.746 80.639,54.746 80.639,60.97 82.641,60.97 82.641,54.746 86.629,54.746 
			86.629,53.704 76.648,53.704 		"/>
	</g>
</g>
<g>
	<path fill="#B79A5F" d="M8.156,70.448c0.309,0.158,0.784,0.316,1.274,0.316c0.528,0,0.807-0.218,0.807-0.55
		c0-0.316-0.241-0.498-0.852-0.716c-0.844-0.294-1.395-0.762-1.395-1.5c0-0.867,0.724-1.53,1.922-1.53
		c0.573,0,0.995,0.12,1.296,0.256l-0.256,0.928c-0.203-0.099-0.565-0.242-1.062-0.242s-0.739,0.227-0.739,0.49
		c0,0.324,0.286,0.468,0.942,0.717c0.897,0.331,1.319,0.799,1.319,1.515c0,0.852-0.656,1.575-2.05,1.575
		c-0.581,0-1.153-0.15-1.439-0.309L8.156,70.448z"/>
	<path fill="#B79A5F" d="M13.37,70.328l-0.362,1.304h-1.191l1.553-5.08h1.507l1.575,5.08h-1.236l-0.392-1.304H13.37z M14.658,69.469
		l-0.316-1.078c-0.09-0.302-0.181-0.679-0.256-0.98H14.07c-0.075,0.302-0.15,0.687-0.233,0.98l-0.302,1.078H14.658z"/>
	<path fill="#B79A5F" d="M18.28,66.552v5.08h-1.153v-5.08H18.28z"/>
	<path fill="#B79A5F" d="M19.273,71.632v-5.08h1.342l1.055,1.861c0.301,0.535,0.603,1.169,0.829,1.741h0.022
		c-0.075-0.671-0.098-1.356-0.098-2.118v-1.484h1.055v5.08h-1.206l-1.085-1.96c-0.301-0.543-0.633-1.198-0.882-1.794l-0.023,0.008
		c0.03,0.671,0.045,1.387,0.045,2.216v1.53H19.273z"/>
	<path fill="#B79A5F" d="M25.451,67.517h-1.364v-0.965h3.904v0.965h-1.387v4.115h-1.153V67.517z"/>
	<path fill="#B79A5F" d="M31.115,66.552h1.146v3.211c0,1.447-0.693,1.952-1.809,1.952c-0.264,0-0.61-0.045-0.836-0.121l0.128-0.927
		c0.158,0.053,0.362,0.091,0.588,0.091c0.482,0,0.784-0.219,0.784-1.011V66.552z"/>
	<path fill="#B79A5F" d="M36.237,69.484h-1.869v1.206h2.088v0.942h-3.241v-5.08h3.136v0.941h-1.982v1.056h1.869V69.484z"/>
	<path fill="#B79A5F" d="M38.421,70.328l-0.362,1.304h-1.191l1.553-5.08h1.507l1.576,5.08h-1.236l-0.392-1.304H38.421z
		 M39.709,69.469l-0.316-1.078c-0.09-0.302-0.181-0.679-0.256-0.98h-0.015c-0.075,0.302-0.151,0.687-0.233,0.98l-0.302,1.078H39.709
		z"/>
	<path fill="#B79A5F" d="M42.178,71.632v-5.08h1.342l1.055,1.861c0.302,0.535,0.604,1.169,0.829,1.741h0.022
		c-0.075-0.671-0.098-1.356-0.098-2.118v-1.484h1.056v5.08h-1.206l-1.086-1.96c-0.302-0.543-0.633-1.198-0.882-1.794l-0.022,0.008
		c0.03,0.671,0.045,1.387,0.045,2.216v1.53H42.178z"/>
	<path fill="#B79A5F" d="M48.896,66.619c0.423-0.067,0.973-0.105,1.553-0.105c0.965,0,1.591,0.174,2.081,0.543
		c0.527,0.392,0.859,1.018,0.859,1.914c0,0.973-0.354,1.644-0.845,2.059c-0.535,0.444-1.349,0.655-2.344,0.655
		c-0.596,0-1.018-0.038-1.305-0.075V66.619z M50.05,70.765c0.099,0.022,0.257,0.022,0.399,0.022
		c1.041,0.008,1.719-0.564,1.719-1.778c0.008-1.056-0.61-1.613-1.598-1.613c-0.256,0-0.422,0.022-0.521,0.045V70.765z"/>
	<path fill="#B79A5F" d="M57.162,69.484h-1.87v1.206h2.089v0.942h-3.242v-5.08h3.136v0.941h-1.982v1.056h1.87V69.484z"/>
	<path fill="#B79A5F" d="M60.603,71.632l-1.629-5.08h1.259l0.618,2.147c0.174,0.604,0.332,1.184,0.453,1.817h0.022
		c0.128-0.611,0.286-1.214,0.46-1.794l0.647-2.171h1.222l-1.711,5.08H60.603z"/>
	<path fill="#B79A5F" d="M67.217,69.484h-1.87v1.206h2.089v0.942h-3.242v-5.08h3.136v0.941h-1.982v1.056h1.87V69.484z"/>
	<path fill="#B79A5F" d="M68.216,66.619c0.423-0.067,0.973-0.105,1.554-0.105c0.965,0,1.59,0.174,2.08,0.543
		c0.527,0.392,0.859,1.018,0.859,1.914c0,0.973-0.354,1.644-0.845,2.059c-0.535,0.444-1.349,0.655-2.344,0.655
		c-0.596,0-1.018-0.038-1.305-0.075V66.619z M69.369,70.765c0.099,0.022,0.257,0.022,0.4,0.022c1.04,0.008,1.718-0.564,1.718-1.778
		c0.008-1.056-0.61-1.613-1.598-1.613c-0.256,0-0.422,0.022-0.521,0.045V70.765z"/>
	<path fill="#B79A5F" d="M74.521,70.328l-0.361,1.304h-1.191l1.553-5.08h1.508l1.575,5.08h-1.236l-0.392-1.304H74.521z
		 M75.811,69.469l-0.316-1.078c-0.091-0.302-0.181-0.679-0.256-0.98h-0.016c-0.075,0.302-0.15,0.687-0.233,0.98l-0.302,1.078H75.811
		z"/>
	<path fill="#B79A5F" d="M78.316,70.448c0.309,0.158,0.784,0.316,1.273,0.316c0.528,0,0.807-0.218,0.807-0.55
		c0-0.316-0.241-0.498-0.852-0.716c-0.844-0.294-1.395-0.762-1.395-1.5c0-0.867,0.724-1.53,1.922-1.53
		c0.573,0,0.995,0.12,1.297,0.256l-0.256,0.928c-0.204-0.099-0.565-0.242-1.063-0.242c-0.497,0-0.738,0.227-0.738,0.49
		c0,0.324,0.286,0.468,0.942,0.717c0.896,0.331,1.319,0.799,1.319,1.515c0,0.852-0.656,1.575-2.051,1.575
		c-0.58,0-1.153-0.15-1.439-0.309L78.316,70.448z"/>
</g>
</svg>
