<?xml version="1.0" encoding="utf-8"?>
<!-- Generator: Adobe Illustrator 16.0.0, SVG Export Plug-In . SVG Version: 6.00 Build 0)  -->
<!DOCTYPE svg PUBLIC "-//W3C//DTD SVG 1.1//EN" "http://www.w3.org/Graphics/SVG/1.1/DTD/svg11.dtd">
<svg version="1.1" id="Ebene_1" xmlns="http://www.w3.org/2000/svg" xmlns:xlink="http://www.w3.org/1999/xlink" x="0px" y="0px"
	 width="78px" height="46px" viewBox="0 0 78 46" enable-background="new 0 0 78 46" xml:space="preserve">
<path fill="#B79A5F" d="M63.902,27.723h-2.139c-0.009-0.229-0.1-0.397-0.278-0.502c-0.177-0.103-0.463-0.155-0.858-0.155h-0.537
	c-0.49,0-0.812,0.083-0.969,0.248c-0.159,0.164-0.235,0.562-0.235,1.19v1.209c0,0.624,0.076,1.017,0.235,1.182
	c0.156,0.166,0.479,0.247,0.969,0.247h0.594c0.422,0,0.716-0.053,0.884-0.162c0.166-0.109,0.249-0.297,0.249-0.565v-0.286h-1.224
	v-1.372h3.31v1.254c0,0.995-0.237,1.719-0.711,2.177c-0.475,0.457-1.222,0.686-2.243,0.686h-1.453c-0.899,0-1.583-0.265-2.048-0.79
	c-0.464-0.524-0.697-1.3-0.697-2.326v-1.114c0-1.146,0.246-1.982,0.734-2.512c0.49-0.528,1.266-0.793,2.321-0.793h1.162
	c0.86,0,1.561,0.197,2.11,0.59c0.548,0.394,0.824,0.889,0.824,1.484V27.723L63.902,27.723z M67.792,32.783v-5.716h-2.054v-1.641H72
	v1.641h-2.042v5.716H67.792L67.792,32.783z"/>
<path fill="#B79A5F" d="M5.5-0.016c-1.448,0-2.716,0.535-3.806,1.605C0.605,2.659,0.06,3.938,0.06,5.425v15.344
	c0,0.631,0.224,1.167,0.671,1.604c0.448,0.438,0.979,0.657,1.591,0.657c0.611,0,1.146-0.219,1.604-0.657
	c0.459-0.438,0.688-0.974,0.688-1.604v-3.393l14.151-3.118c1.609-0.366,2.954-1.223,4.035-2.567
	c1.079-1.345,1.619-2.842,1.619-4.493c0-1.996-0.703-3.698-2.109-5.104c-1.405-1.405-3.107-2.109-5.104-2.109H5.5L5.5-0.016
	L5.5-0.016z M4.614,12.7V5.395c0-0.591,0.296-0.887,0.887-0.887h1.466h10.24c0.732,0,1.365,0.26,1.894,0.779
	c0.53,0.52,0.797,1.146,0.797,1.88c0,0.611-0.199,1.172-0.599,1.682c-0.396,0.508-0.9,0.824-1.512,0.947L4.614,12.7L4.614,12.7z
	 M28.546,1.543c-1.061,1.044-1.59,2.298-1.59,3.765v15.425c0,0.616,0.219,1.142,0.657,1.579c0.438,0.438,0.963,0.657,1.574,0.657
	c0.61,0,1.136-0.219,1.573-0.657c0.438-0.438,0.656-0.968,0.656-1.579V5.303c0-0.591,0.298-0.886,0.888-0.886h1.437h9.995
	c0.733,0,1.355,0.254,1.864,0.764c0.509,0.509,0.764,1.125,0.764,1.839c0,0.632-0.194,1.187-0.581,1.665
	c-0.387,0.484-0.876,0.783-1.467,0.907l-6.663,1.497c-1.365,0.306-2.465,0.994-3.302,2.054c-0.835,1.06-1.252,2.266-1.252,3.611
	c0,1.615,0.564,2.984,1.696,4.116c1.131,1.136,2.501,1.701,4.11,1.701h8.896c0.61,0,1.131-0.224,1.558-0.672
	c0.428-0.449,0.643-0.969,0.643-1.559c0-0.611-0.215-1.136-0.643-1.574c-0.427-0.438-0.947-0.657-1.558-0.657h-8.896
	c-0.366,0-0.688-0.127-0.963-0.382c-0.274-0.256-0.411-0.576-0.411-0.963c0-0.714,0.355-1.152,1.069-1.315l6.662-1.497
	c1.631-0.367,2.96-1.202,3.989-2.507c1.028-1.304,1.543-2.771,1.543-4.4c0-1.915-0.688-3.572-2.063-4.967
	c-1.374-1.396-3.041-2.095-4.996-2.095H32.305C30.838-0.016,29.584,0.504,28.546,1.543L28.546,1.543L28.546,1.543z M54.16,15.511
	c0,1.937,0.692,3.596,2.077,4.982c1.387,1.386,3.057,2.078,5.013,2.078h9.69c1.935,0,3.595-0.692,4.98-2.078
	C77.307,19.107,78,17.448,78,15.511V7.045c0-1.915-0.688-3.572-2.063-4.967c-1.375-1.396-3.041-2.095-4.996-2.095h-9.69
	c-1.956,0-3.626,0.693-5.013,2.08c-1.385,1.384-2.077,3.045-2.077,4.981V15.511L54.16,15.511L54.16,15.511z M58.622,7.045
	c0-0.715,0.256-1.324,0.764-1.834c0.51-0.51,1.131-0.764,1.864-0.764h9.69c0.732,0,1.354,0.254,1.862,0.764
	c0.511,0.51,0.766,1.119,0.766,1.834v8.466c0,0.714-0.255,1.325-0.766,1.834c-0.509,0.51-1.13,0.765-1.862,0.765h-9.69
	c-0.733,0-1.354-0.255-1.864-0.765c-0.508-0.509-0.764-1.12-0.764-1.834V7.045L58.622,7.045L58.622,7.045z"/>
<path fill="#B79A5F" d="M0.06,26.006h53.933v1.578H0.06V26.006L0.06,26.006z M74.472,26.006h2.652v1.578h-2.652V26.006
	L74.472,26.006z"/>
<path fill="#B79A5F" d="M0.06,30.146h53.933v1.577H0.06V30.146L0.06,30.146z M74.472,30.146h2.652v1.577h-2.652V30.146
	L74.472,30.146z"/>
<polygon fill="#B79A5F" points="0,34.284 77.125,34.284 77.125,35.862 0,35.862 0,34.284 "/>
<path fill="#B79A5F" d="M4.667,42.978c-0.062,0.258-0.167,0.485-0.312,0.681c-0.145,0.194-0.315,0.354-0.513,0.483
	c-0.231,0.152-0.473,0.26-0.724,0.325s-0.556,0.097-0.918,0.097H0.114l1.248-5.178h1.844c0.383,0,0.669,0.015,0.859,0.044
	c0.19,0.028,0.361,0.089,0.511,0.184c0.163,0.099,0.271,0.232,0.322,0.397c0.052,0.168,0.053,0.36-0.001,0.578
	c-0.062,0.253-0.178,0.478-0.354,0.675c-0.175,0.197-0.385,0.343-0.632,0.436l-0.006,0.028c0.306,0.067,0.53,0.203,0.675,0.41
	C4.723,42.347,4.752,42.627,4.667,42.978L4.667,42.978L4.667,42.978z M3.503,40.851c0.021-0.085,0.02-0.17-0.002-0.258
	s-0.074-0.152-0.156-0.19c-0.077-0.038-0.174-0.059-0.29-0.062c-0.118-0.005-0.294-0.006-0.527-0.006H2.437l-0.264,1.097h0.164
	c0.225,0,0.383-0.003,0.473-0.008c0.091-0.005,0.19-0.028,0.296-0.072c0.117-0.05,0.206-0.116,0.266-0.202
	S3.477,40.963,3.503,40.851L3.503,40.851L3.503,40.851z M3.325,42.955c0.038-0.16,0.036-0.283-0.008-0.374
	c-0.043-0.093-0.125-0.159-0.244-0.207c-0.071-0.03-0.178-0.047-0.315-0.05c-0.138-0.004-0.324-0.005-0.557-0.005H1.958
	l-0.312,1.297h0.07c0.341,0,0.577-0.003,0.709-0.008c0.131-0.005,0.272-0.036,0.422-0.094c0.132-0.051,0.235-0.125,0.314-0.225
	C3.241,43.192,3.294,43.079,3.325,42.955L3.325,42.955L3.325,42.955z M9.577,40.659L6.303,46H4.987l0.963-1.525l-0.523-3.815h1.289
	l0.234,2.454l1.368-2.454H9.577L9.577,40.659z M16.131,41.021c-0.057,0.24-0.15,0.47-0.279,0.688
	c-0.13,0.218-0.286,0.399-0.465,0.547c-0.11,0.089-0.229,0.173-0.352,0.25c-0.126,0.077-0.259,0.142-0.4,0.194
	c-0.141,0.053-0.291,0.097-0.448,0.127c-0.158,0.028-0.33,0.044-0.517,0.044h-0.688l-0.407,1.692h-1.31l1.249-5.178h2.024
	c0.301,0,0.554,0.026,0.759,0.081c0.205,0.057,0.382,0.142,0.53,0.26c0.164,0.131,0.274,0.303,0.33,0.52
	C16.212,40.463,16.205,40.721,16.131,41.021L16.131,41.021L16.131,41.021z M14.782,41.051c0.034-0.145,0.031-0.271-0.015-0.378
	c-0.044-0.105-0.111-0.178-0.199-0.216c-0.11-0.054-0.222-0.085-0.333-0.093c-0.11-0.009-0.265-0.013-0.458-0.013h-0.186
	l-0.374,1.553h0.09c0.125,0,0.241-0.003,0.353-0.004c0.11-0.003,0.209-0.011,0.293-0.023c0.072-0.013,0.152-0.035,0.238-0.069
	c0.086-0.033,0.155-0.071,0.208-0.113c0.108-0.085,0.19-0.174,0.243-0.268C14.698,41.335,14.743,41.209,14.782,41.051L14.782,41.051
	L14.782,41.051z M19.593,44.564h-1.231l0.468-1.937c0.038-0.157,0.069-0.315,0.094-0.472c0.024-0.155,0.029-0.272,0.012-0.345
	c-0.021-0.09-0.065-0.151-0.138-0.19c-0.069-0.038-0.171-0.058-0.304-0.058c-0.101,0-0.206,0.02-0.317,0.058
	c-0.112,0.035-0.237,0.095-0.373,0.176l-0.669,2.768H15.91l1.306-5.412h1.226l-0.468,1.938c0.242-0.168,0.47-0.302,0.684-0.397
	c0.213-0.094,0.433-0.142,0.665-0.142c0.402,0,0.68,0.126,0.83,0.379c0.152,0.251,0.171,0.615,0.056,1.093L19.593,44.564
	L19.593,44.564z M21.726,44.564H20.5l0.942-3.905h1.227L21.726,44.564L21.726,44.564z M22.839,40.101h-1.296l0.229-0.949h1.296
	L22.839,40.101L22.839,40.101z M23.891,44.564h-1.225l1.306-5.412h1.225L23.891,44.564L23.891,44.564z M26.057,44.564h-1.226
	l0.943-3.905H27L26.057,44.564L26.057,44.564z M27.169,40.101h-1.296l0.229-0.949h1.296L27.169,40.101L27.169,40.101z
	 M31.335,42.557c-0.15,0.625-0.431,1.127-0.842,1.51c-0.41,0.382-0.85,0.573-1.317,0.573c-0.196,0-0.359-0.022-0.494-0.066
	c-0.134-0.044-0.273-0.111-0.414-0.206L27.876,46H26.65l1.289-5.341h1.226l-0.1,0.407c0.218-0.152,0.432-0.278,0.642-0.374
	c0.209-0.094,0.437-0.142,0.682-0.142c0.455,0,0.766,0.18,0.928,0.539C31.479,41.449,31.485,41.938,31.335,42.557L31.335,42.557
	L31.335,42.557z M30.077,42.583c0.091-0.381,0.099-0.658,0.022-0.828c-0.076-0.173-0.239-0.258-0.49-0.258
	c-0.109,0-0.222,0.017-0.339,0.051c-0.117,0.035-0.236,0.087-0.358,0.157l-0.476,1.965c0.061,0.027,0.127,0.048,0.202,0.059
	c0.076,0.011,0.167,0.018,0.274,0.018c0.299,0,0.544-0.098,0.735-0.291C29.838,43.263,29.982,42.971,30.077,42.583L30.077,42.583
	L30.077,42.583z M35.851,42.557c-0.151,0.625-0.432,1.127-0.844,1.51c-0.41,0.382-0.85,0.573-1.316,0.573
	c-0.197,0-0.361-0.022-0.495-0.066s-0.271-0.111-0.413-0.206L32.39,46h-1.227l1.289-5.341h1.226l-0.099,0.407
	c0.217-0.152,0.431-0.278,0.641-0.374c0.208-0.094,0.438-0.142,0.682-0.142c0.455,0,0.766,0.18,0.929,0.539
	C35.993,41.449,36,41.938,35.851,42.557L35.851,42.557L35.851,42.557z M34.589,42.583c0.093-0.381,0.101-0.658,0.023-0.828
	c-0.075-0.173-0.239-0.258-0.489-0.258c-0.109,0-0.223,0.017-0.34,0.051c-0.116,0.035-0.236,0.087-0.358,0.157l-0.475,1.965
	c0.06,0.027,0.126,0.048,0.201,0.059c0.077,0.011,0.167,0.018,0.274,0.018c0.299,0,0.544-0.098,0.735-0.291
	C34.353,43.263,34.495,42.971,34.589,42.583L34.589,42.583L34.589,42.583z M38.012,44.67c-0.742,0-1.269-0.177-1.58-0.528
	c-0.311-0.354-0.387-0.856-0.23-1.507c0.154-0.639,0.461-1.147,0.922-1.528c0.462-0.38,1.022-0.57,1.686-0.57
	c0.604,0,1.018,0.161,1.244,0.483c0.225,0.322,0.265,0.784,0.12,1.386l-0.105,0.439H37.38c-0.031,0.178-0.03,0.331,0.007,0.451
	c0.035,0.122,0.1,0.219,0.189,0.291c0.086,0.072,0.197,0.124,0.329,0.155c0.133,0.031,0.282,0.048,0.448,0.048
	c0.143,0,0.287-0.017,0.432-0.048s0.282-0.074,0.408-0.124c0.111-0.044,0.216-0.092,0.313-0.142
	c0.098-0.053,0.178-0.098,0.241-0.137h0.129l-0.242,1.006c-0.109,0.04-0.211,0.076-0.302,0.109s-0.214,0.067-0.367,0.102
	c-0.141,0.036-0.285,0.062-0.431,0.082C38.389,44.66,38.215,44.67,38.012,44.67L38.012,44.67L38.012,44.67z M39.037,42.109
	c0.055-0.257,0.042-0.453-0.039-0.588c-0.08-0.135-0.237-0.202-0.472-0.202c-0.238,0-0.44,0.071-0.61,0.213
	c-0.167,0.142-0.289,0.334-0.361,0.577H39.037L39.037,42.109L39.037,42.109z M41.893,44.564l3.013-5.178h1.429l0.512,5.178h-1.348
	l-0.072-1.058H43.79l-0.581,1.058H41.893L41.893,44.564z M45.367,42.57l-0.12-1.708l-0.945,1.708H45.367L45.367,42.57z
	 M50.847,44.564h-3.482l1.249-5.178h1.311l-1.011,4.191h2.172L50.847,44.564L50.847,44.564z M56.796,44.564h-1.302l0.828-3.433
	l-1.484,2.217h-0.894l-0.414-2.217l-0.828,3.433h-1.233l1.251-5.178h1.508l0.54,2.556l1.769-2.556h1.511L56.796,44.564
	L56.796,44.564z M57.875,44.564l1.249-5.178h3.526l-0.237,0.987H60.19l-0.22,0.908h2.05l-0.237,0.987h-2.051l-0.315,1.309h2.225
	l-0.24,0.986H57.875L57.875,44.564z M67.109,44.564h-1.597l-0.991-1.898h-0.472l-0.459,1.898h-1.303l1.249-5.178h2.099
	c0.289,0,0.538,0.018,0.742,0.054c0.206,0.036,0.388,0.112,0.542,0.225c0.159,0.118,0.271,0.268,0.335,0.45
	c0.066,0.182,0.065,0.414-0.002,0.693c-0.095,0.396-0.263,0.718-0.502,0.966c-0.24,0.247-0.527,0.442-0.864,0.589L67.109,44.564
	L67.109,44.564z M65.868,40.972c0.032-0.13,0.034-0.242,0.006-0.336c-0.027-0.094-0.093-0.166-0.197-0.218
	c-0.074-0.033-0.16-0.056-0.258-0.065c-0.098-0.009-0.222-0.015-0.37-0.015h-0.438l-0.337,1.395h0.375
	c0.183,0,0.34-0.012,0.471-0.033c0.133-0.021,0.253-0.068,0.358-0.14c0.099-0.065,0.181-0.143,0.243-0.233
	S65.833,41.12,65.868,40.972L65.868,40.972L65.868,40.972z M66.934,44.564l3.011-5.178h1.43l0.513,5.178H70.54l-0.072-1.058H68.83
	l-0.581,1.058H66.934L66.934,44.564z M70.407,42.57l-0.119-1.708l-0.945,1.708H70.407L70.407,42.57z M73.995,44.659
	c-0.4,0-0.741-0.039-1.025-0.115s-0.542-0.17-0.773-0.285l0.297-1.23h0.118c0.209,0.22,0.457,0.389,0.743,0.508
	c0.287,0.117,0.579,0.177,0.875,0.177c0.075,0,0.176-0.008,0.302-0.024c0.127-0.017,0.231-0.042,0.314-0.077
	c0.102-0.039,0.191-0.093,0.271-0.165c0.081-0.071,0.134-0.163,0.161-0.279c0.032-0.13,0.007-0.234-0.076-0.315
	c-0.084-0.082-0.192-0.141-0.326-0.177c-0.166-0.048-0.346-0.091-0.536-0.133c-0.192-0.042-0.369-0.094-0.529-0.154
	c-0.37-0.142-0.615-0.331-0.731-0.569c-0.118-0.237-0.134-0.538-0.047-0.898c0.117-0.483,0.419-0.877,0.905-1.177
	c0.484-0.301,1.037-0.45,1.656-0.45c0.311,0,0.612,0.03,0.903,0.094c0.293,0.062,0.548,0.147,0.766,0.255l-0.286,1.182h-0.115
	c-0.154-0.165-0.357-0.305-0.609-0.417c-0.253-0.114-0.525-0.171-0.82-0.171c-0.114,0-0.219,0.008-0.313,0.023
	c-0.096,0.017-0.198,0.049-0.31,0.095c-0.09,0.037-0.174,0.093-0.252,0.165c-0.077,0.072-0.127,0.155-0.148,0.246
	c-0.032,0.131-0.01,0.236,0.066,0.314c0.075,0.077,0.242,0.148,0.497,0.209c0.166,0.041,0.324,0.078,0.479,0.116
	c0.152,0.036,0.314,0.087,0.482,0.152c0.33,0.131,0.558,0.304,0.682,0.524c0.124,0.219,0.143,0.509,0.056,0.869
	c-0.124,0.512-0.429,0.926-0.912,1.239C75.275,44.501,74.687,44.659,73.995,44.659"/>
</svg>
